<?xml version="1.0" encoding="UTF-8" standalone="no"?>
<!-- Created with Inkscape (http://www.inkscape.org/) -->

<svg
   width="210mm"
   height="297mm"
   viewBox="0 0 210 297"
   version="1.1"
   id="svg5"
   inkscape:version="1.2.2 (b0a8486541, 2022-12-01)"
   sodipodi:docname="londonstudioinkshape.svg"
   xmlns:inkscape="http://www.inkscape.org/namespaces/inkscape"
   xmlns:sodipodi="http://sodipodi.sourceforge.net/DTD/sodipodi-0.dtd"
   xmlns:xlink="http://www.w3.org/1999/xlink"
   xmlns="http://www.w3.org/2000/svg"
   xmlns:svg="http://www.w3.org/2000/svg">
  <sodipodi:namedview
     id="namedview7"
     pagecolor="#ffffff"
     bordercolor="#000000"
     borderopacity="0.25"
     inkscape:showpageshadow="2"
     inkscape:pageopacity="0.0"
     inkscape:pagecheckerboard="0"
     inkscape:deskcolor="#d1d1d1"
     inkscape:document-units="mm"
     showgrid="false"
     inkscape:zoom="1.3140081"
     inkscape:cx="375.56845"
     inkscape:cy="560.87933"
     inkscape:window-width="3840"
     inkscape:window-height="2043"
     inkscape:window-x="0"
     inkscape:window-y="0"
     inkscape:window-maximized="1"
     inkscape:current-layer="layer1" />
  <defs
     id="defs2">
    <linearGradient
       inkscape:collect="always"
       id="linearGradient7639">
      <stop
         style="stop-color:#303030;stop-opacity:1;"
         offset="0"
         id="stop7635" />
      <stop
         style="stop-color:#a7a04d;stop-opacity:1;"
         offset="1"
         id="stop7637" />
    </linearGradient>
    <linearGradient
       id="linearGradient7609"
       inkscape:swatch="solid">
      <stop
         style="stop-color:#fb6300;stop-opacity:1;"
         offset="0"
         id="stop7607" />
    </linearGradient>
    <rect
       x="14.082033"
       y="32.221904"
       width="763.69093"
       height="61.991269"
       id="rect2006" />
    <meshgradient
       inkscape:collect="always"
       id="meshgradient5586"
       gradientUnits="userSpaceOnUse"
       x="1.4655048"
       y="0.3811878">
      <meshrow
         id="meshrow5588">
        <meshpatch
           id="meshpatch5590">
          <stop
             path="c 264.223,0  528.446,0  792.669,0"
             style="stop-color:#ffffff;stop-opacity:1"
             id="stop5592" />
          <stop
             path="c 0,40.0167  0,80.0333  0,120.05"
             style="stop-color:#552200;stop-opacity:1"
             id="stop5594" />
          <stop
             path="c -264.223,0  -528.446,0  -792.669,0"
             style="stop-color:#ffffff;stop-opacity:1"
             id="stop5596" />
          <stop
             path="c 0,-40.0167  0,-80.0333  0,-120.05"
             style="stop-color:#552200;stop-opacity:1"
             id="stop5598" />
        </meshpatch>
      </meshrow>
    </meshgradient>
    <radialGradient
       inkscape:collect="always"
       xlink:href="#linearGradient7639"
       id="radialGradient7641"
       cx="397.79997"
       cy="60.406174"
       fx="397.79997"
       fy="60.406174"
       r="396.33447"
       gradientTransform="matrix(1,0,0,0.15145033,0,51.257639)"
       gradientUnits="userSpaceOnUse" />
  </defs>
  <g
     inkscape:label="Layer 1"
     inkscape:groupmode="layer"
     id="layer1">
    <rect
       style="fill:#000000;stroke:#000000;stroke-width:0.264583"
       id="rect1215"
       width="209.64377"
       height="31.594004"
       x="0.23596399"
       y="0.16438867" />
    <path
       style="fill:#000000;stroke:#000000;stroke-width:0.76103"
       d="M 1.5220606,60.121393 V 0.76103029 H 397.63833 793.7546 V 60.121393 119.48176 H 397.63833 1.5220606 Z"
       id="path1396"
       transform="scale(0.26458333)" />
    <path
       style="fill:url(#radialGradient7641);stroke:url(#meshgradient5586);stroke-width:0.759685;stroke-dasharray:none;fill-opacity:1"
       d="M 397.06756,119.67201 1.5220606,119.4803 791.84311,119.76047 1.5220606,0.76103029 H 397.63833 793.7546 V 60.501908 c 0,32.857483 -0.25685,59.655592 -0.57078,59.551352 -0.31392,-0.10425 -178.56624,-0.27581 -396.11626,-0.38125 z"
       id="path1398"
       sodipodi:nodetypes="scccccsss"
       transform="scale(0.26458333)" />
    <g
       aria-label="London design studio"
       transform="matrix(0.28478155,0,0,0.29904802,-3.2710954,-0.61387475)"
       id="text2004"
       style="font-style:italic;font-size:37.3333px;-inkscape-font-specification:'sans-serif Italic';white-space:pre;fill:#fb6300;stroke:#000000">
      <g
         id="path7921">
        <path
           style="color:#000000;-inkscape-font-specification:'sans-serif Italic';stroke:none;-inkscape-stroke:none"
           d="m 20.352859,38.037755 h 3.700518 l -4.666663,24.153626 h 13.252593 l -0.601562,3.062497 h -16.95311 z"
           id="path7960" />
        <path
           style="color:#000000;-inkscape-font-specification:'sans-serif Italic';fill:#000000;stroke:none;-inkscape-stroke:none"
           d="m 19.939453,37.537109 -0.07813,0.40625 -5.382812,27.810547 h 17.970703 l 0.798828,-4.0625 h -13.25586 l 4.667969,-24.154297 z m 0.826172,1 h 2.681641 L 18.78125,62.691406 h 13.25 l -0.404297,2.0625 H 15.691406 Z"
           id="path7962" />
      </g>
      <g
         id="path7923">
        <path
           style="color:#000000;-inkscape-font-specification:'sans-serif Italic';stroke:none;-inkscape-stroke:none"
           d="m 44.360651,65.782524 q -3.591143,0 -5.687495,-2.205728 -2.078123,-2.223956 -2.078123,-6.052078 0,-2.223956 0.710937,-4.520829 0.729166,-2.315103 1.877602,-3.88281 1.804686,-2.442706 4.028643,-3.609372 2.223956,-1.166665 5.031245,-1.166665 3.481768,0 5.614579,2.169269 2.15104,2.169269 2.15104,5.669266 0,2.424477 -0.710937,4.830725 -0.710937,2.406248 -1.859374,3.992184 -1.786456,2.442706 -4.010413,3.609372 -2.223956,1.166666 -5.067704,1.166666 z m -4.28385,-8.367181 q 0,2.770831 1.148436,4.156247 1.166666,1.367186 3.518226,1.367186 3.372393,0 5.578121,-2.934893 2.223956,-2.953123 2.223956,-7.473952 0,-2.643227 -1.184895,-3.992184 -1.184895,-1.348958 -3.481768,-1.348958 -1.895831,0 -3.372393,0.893229 -1.476561,0.874999 -2.643226,2.679685 -0.856771,1.348957 -1.330729,3.080727 -0.455728,1.731769 -0.455728,3.572913 z"
           id="path7966" />
        <path
           style="color:#000000;-inkscape-font-specification:'sans-serif Italic';fill:#000000;stroke:none;-inkscape-stroke:none"
           d="m 48.244141,43.845703 c -1.940788,0 -3.704395,0.404675 -5.263672,1.222656 -1.560491,0.818619 -2.960373,2.079039 -4.199219,3.75586 l -0.002,0.002 c -0.80515,1.099094 -1.452181,2.443047 -1.951172,4.027344 v 0.002 c -0.487436,1.574791 -0.732422,3.134007 -0.732422,4.669922 0,2.642554 0.729767,4.805375 2.212891,6.392578 v 0.002 l 0.002,0.002 c 1.495783,1.573825 3.554319,2.361328 6.050781,2.361328 1.964206,0 3.738555,-0.406105 5.298828,-1.224609 1.560989,-0.81888 2.954701,-2.08016 4.181641,-3.757813 h 0.002 v -0.002 c 0.807332,-1.114887 1.447365,-2.49688 1.933594,-4.142578 0.486887,-1.647926 0.732422,-3.307468 0.732422,-4.972656 0,-2.434726 -0.767524,-4.478112 -2.294922,-6.019532 -1.517235,-1.54317 -3.545688,-2.318359 -5.970703,-2.318359 z m 0,1 c 2.217337,0 3.931302,0.670346 5.257812,2.019531 l 0.002,0.002 c 1.339358,1.350708 2.00586,3.085508 2.00586,5.316407 0,1.567444 -0.230379,3.129051 -0.691407,4.689453 -0.461686,1.562629 -1.06124,2.840151 -1.785156,3.839844 -1.154544,1.578055 -2.434312,2.724634 -3.837891,3.460937 -1.404998,0.737049 -3.00653,1.109375 -4.833984,1.109375 -2.289473,0 -4.023339,-0.682418 -5.322266,-2.046875 l -0.002,-0.002 c -1.286505,-1.377885 -1.941406,-3.248538 -1.941406,-5.708984 0,-1.428735 0.227424,-2.884067 0.6875,-4.371094 v -0.002 c 0.472843,-1.500705 1.077555,-2.743921 1.802734,-3.734375 l 0.002,-0.002 c 1.166934,-1.578891 2.453344,-2.724372 3.857421,-3.460938 1.405995,-0.73757 2.996568,-1.109375 4.798829,-1.109375 z m -0.365235,1.84375 c -1.340837,0 -2.562371,0.319867 -3.626953,0.962891 -1.064385,0.630747 -1.998608,1.584943 -2.808594,2.83789 l -0.002,0.002 v 0.002 c -0.600725,0.945821 -1.063129,2.020177 -1.390625,3.216796 l -0.002,0.002 v 0.002 c -0.314917,1.196685 -0.472656,2.432489 -0.472656,3.701172 0,1.916297 0.393528,3.424911 1.263672,4.474609 l 0.002,0.002 0.0039,0.0039 c 0.885451,1.037638 2.233833,1.542969 3.898438,1.542969 2.393304,0 4.43255,-1.080337 5.976562,-3.134766 1.556395,-2.066688 2.324219,-4.679518 2.324219,-7.77539 0,-1.836862 -0.411804,-3.301305 -1.308594,-4.322266 C 50.84063,47.187601 49.507984,46.68968 47.878853,46.68968 Z m 0,1 c 1.433364,0 2.421255,0.398783 3.105469,1.177734 0.683068,0.777647 1.060547,1.974673 1.060547,3.66211 0,2.931894 -0.71417,5.303023 -2.123047,7.173828 -1.396956,1.858759 -3.07452,2.736328 -5.177734,2.736328 -1.469516,0 -2.466632,-0.407483 -3.136719,-1.191406 -5.88e-4,-6.88e-4 -0.0014,-0.0013 -0.002,-0.002 -0.658604,-0.797782 -1.029297,-2.05553 -1.029297,-3.830078 0,-1.184191 0.147711,-2.330813 0.439453,-3.441407 0.304448,-1.112405 0.727896,-2.092526 1.269531,-2.945312 0.744884,-1.151188 1.573265,-1.982291 2.476563,-2.517578 h 0.002 l 0.002,-0.002 c 0.903286,-0.546433 1.927921,-0.820313 3.113281,-0.820313 z"
           id="path7968" />
      </g>
      <g
         id="path7925">
        <path
           style="color:#000000;-inkscape-font-specification:'sans-serif Italic';stroke:none;-inkscape-stroke:none"
           d="m 78.52208,52.930972 -2.388019,12.322906 h -3.372393 l 2.388019,-12.195302 q 0.164062,-0.85677 0.255208,-1.51302 0.09114,-0.656249 0.09114,-1.039061 0,-1.531249 -0.966145,-2.388019 -0.966145,-0.85677 -2.697914,-0.85677 -2.697914,0 -4.648433,1.804686 -1.95052,1.786457 -2.552082,4.867183 l -2.242185,11.320303 h -3.354164 l 3.955726,-20.416649 h 3.354164 l -0.674479,3.20833 q 1.403645,-1.768227 3.372393,-2.734372 1.968748,-0.966145 4.138017,-0.966145 2.697915,0 4.174476,1.458332 1.49479,1.458332 1.49479,4.101559 0,0.656249 -0.09115,1.403644 -0.07292,0.747396 -0.236979,1.622395 z"
           id="path7972" />
        <path
           style="color:#000000;-inkscape-font-specification:'sans-serif Italic';fill:#000000;stroke:none;-inkscape-stroke:none"
           d="m 73.181641,43.845703 c -1.520408,0 -2.981677,0.341485 -4.359375,1.017578 -0.855447,0.419803 -1.608779,0.986645 -2.3125,1.623047 l 0.451171,-2.148437 h -4.382812 l -4.148438,21.416015 h 4.371094 l 2.320313,-11.724609 h 0.002 c 0.385044,-1.971894 1.18478,-3.482176 2.398437,-4.59375 v -0.002 h 0.002 c 1.215994,-1.125079 2.621473,-1.671875 4.308594,-1.671875 1.072056,0 1.832094,0.257684 2.365235,0.730468 0.533463,0.473072 0.798828,1.097999 0.798828,2.013672 0,0.215528 -0.027,0.546325 -0.08594,0.970703 -0.05922,0.426378 -0.143797,0.923464 -0.251953,1.488282 l -2.503906,12.789062 h 4.392578 l 2.466797,-12.730469 0.115234,-0.591796 h -0.0293 c 0.05801,-0.365485 0.123817,-0.741789 0.15625,-1.074219 0.0619,-0.511169 0.09375,-0.996147 0.09375,-1.453125 0,-1.855313 -0.539281,-3.379475 -1.642578,-4.457031 -1.092697,-1.079208 -2.636692,-1.601563 -4.52539,-1.601563 z m 0,1 c 1.708518,0 2.946217,0.447267 3.822265,1.3125 l 0.002,0.002 v 0.002 c 0.888446,0.866777 1.34375,2.074291 1.34375,3.742188 0,0.41435 -0.0273,0.862943 -0.08594,1.34375 l -0.002,0.0059 v 0.0059 c -0.04693,0.480963 -0.123376,1.006949 -0.230469,1.578125 L 75.7207,64.754081 h -2.351562 l 2.271484,-11.599609 v -0.002 c 0.110593,-0.577541 0.197457,-1.088488 0.259766,-1.53711 0.06258,-0.450619 0.0957,-0.814487 0.0957,-1.109375 0,-1.12599 -0.380037,-2.092431 -1.134766,-2.761718 -0.755052,-0.669574 -1.792329,-0.982422 -3.029297,-0.982422 -1.909146,0 -3.602013,0.655634 -4.986328,1.935547 -1.387033,1.270366 -2.288041,3.004888 -2.705078,5.140625 L 61.97851,64.754034 h -2.337891 l 3.761719,-19.416015 h 2.326172 l -0.546875,2.605468 0.880859,0.41211 c 0.892558,-1.124391 1.954786,-1.984051 3.201172,-2.595703 1.247296,-0.612099 2.54602,-0.914063 3.917969,-0.914063 z"
           id="path7974" />
      </g>
      <g
         id="path7927">
        <path
           style="color:#000000;-inkscape-font-specification:'sans-serif Italic';stroke:none;-inkscape-stroke:none"
           d="m 96.988209,62.191381 q -1.348957,1.768227 -3.190101,2.679685 -1.841144,0.911458 -4.08333,0.911458 -3.062497,0 -4.848954,-2.078124 -1.768228,-2.096352 -1.768228,-5.723953 0,-3.026039 1.07552,-5.760412 1.07552,-2.752602 3.117185,-4.921871 1.348957,-1.440103 3.044268,-2.187498 1.695311,-0.765624 3.554685,-0.765624 1.968748,0 3.463538,0.947916 1.51302,0.947915 2.333332,2.716143 l 2.187496,-11.119782 h 3.37239 L 99.722582,65.253878 H 96.350189 Z M 86.579364,57.378885 q 0,2.643227 1.184895,4.119788 1.203124,1.476561 3.317706,1.476561 1.567706,0 2.898435,-0.747395 1.348957,-0.765624 2.369789,-2.242186 1.07552,-1.531248 1.695311,-3.536455 0.619791,-2.005207 0.619791,-3.955726 0,-2.533852 -1.203124,-3.955725 -1.184894,-1.421874 -3.281247,-1.421874 -1.585936,0 -2.953122,0.747395 -1.367187,0.747395 -2.333332,2.15104 -1.05729,1.513019 -1.695311,3.518226 -0.619791,2.005207 -0.619791,3.846351 z"
           id="path7978" />
        <path
           style="color:#000000;-inkscape-font-specification:'sans-serif Italic';fill:#000000;stroke:none;-inkscape-stroke:none"
           d="m 101.46289,36.388672 -2.027343,10.304687 c -0.505313,-0.720712 -1.082704,-1.363378 -1.814453,-1.822265 l -0.002,-0.002 c -1.07988,-0.684187 -2.338663,-1.023438 -3.730469,-1.023438 -1.30677,0 -2.564327,0.269183 -3.75586,0.806641 -1.193879,0.526334 -2.265786,1.299845 -3.207031,2.304687 -1.402891,1.490855 -2.479098,3.187072 -3.21875,5.080078 -0.74001,1.881382 -1.109375,3.866766 -1.109375,5.94336 0,2.499637 0.616258,4.540658 1.886719,6.046875 v 0.002 l 0.002,0.002 c 1.283042,1.492518 3.073758,2.251953 5.228516,2.251953 1.56254,0 3.004934,-0.321401 4.304687,-0.964844 0.775972,-0.384144 1.469308,-0.910266 2.119141,-1.507812 l -0.404297,1.943359 h 4.400395 l 5.71875,-29.365234 z m 0.82227,1 h 2.35547 l -5.330083,27.365234 h -2.345703 l 0.513672,-2.460937 -0.888672,-0.404297 c -0.857897,1.12454 -1.857946,1.963014 -3.013672,2.535156 -1.155103,0.571834 -2.43429,0.859375 -3.861328,0.859375 -1.92637,0 -3.368369,-0.625022 -4.466797,-1.900391 v -0.002 c -1.086471,-1.288812 -1.650391,-3.064001 -1.650391,-5.40039 0,-1.958121 0.347001,-3.813679 1.041016,-5.578125 0.694185,-1.776644 1.696824,-3.360493 3.015625,-4.761719 0.857363,-0.915293 1.81628,-1.602074 2.882812,-2.072266 l 0.002,-0.002 h 0.002 c 1.067715,-0.482194 2.176702,-0.720703 3.347656,-0.720703 1.23225,0 2.284582,0.290365 3.197265,0.869141 v 0.002 h 0.002 c 0.924596,0.579264 1.63269,1.398651 2.144531,2.501953 l 0.646484,1.396484 z m -8.103519,9.226562 c -1.135834,0 -2.210504,0.2713 -3.19336,0.808594 -0.983557,0.537677 -1.822809,1.314285 -2.505859,2.306641 -0.736547,1.054514 -1.321522,2.273055 -1.759766,3.65039 v 0.002 l -0.002,0.002 c -0.425943,1.378053 -0.640625,2.710607 -0.640625,3.99414 0,1.836862 0.413844,3.335635 1.294922,4.433594 l 0.002,0.002 c 0.892693,1.095577 2.178979,1.660156 3.705078,1.660156 1.124594,0 2.182334,-0.271231 3.142578,-0.810547 h 0.002 v -0.002 c 0.972219,-0.551799 1.819005,-1.356715 2.535157,-2.392578 0.748898,-1.067066 1.335489,-2.292898 1.761718,-3.671875 0.426701,-1.380503 0.642579,-2.750211 0.642579,-4.103515 0,-1.767269 -0.424774,-3.217801 -1.320313,-4.277344 l -0.002,-0.002 c -0.882695,-1.057888 -2.152534,-1.59961 -3.662109,-1.59961 z m 0,1 c 1.284524,0 2.199394,0.405679 2.896484,1.242188 l 0.002,0.002 v 0.002 c 0.70748,0.836112 1.085938,2.022716 1.085938,3.632813 0,1.247385 -0.19797,2.513537 -0.597657,3.80664 -0.399701,1.293151 -0.942978,2.424644 -1.626953,3.398438 h -0.002 v 0.002 c -0.64437,0.932037 -1.377654,1.620837 -2.203125,2.089844 -0.814059,0.45721 -1.688618,0.683593 -2.654297,0.683593 -1.293341,0 -2.218216,-0.417847 -2.929687,-1.291015 -0.697795,-0.870703 -1.072266,-2.118488 -1.072266,-3.804688 0,-1.171322 0.197213,-2.403665 0.597656,-3.699219 0.411996,-1.293483 0.955232,-2.417649 1.626953,-3.378906 v -0.002 l 0.002,-0.002 c 0.605142,-0.879169 1.320799,-1.535292 2.160156,-1.994141 0.840057,-0.459231 1.736098,-0.6875 2.714844,-0.6875 z"
           id="path7980" />
      </g>
      <g
         id="path7929">
        <path
           style="color:#000000;-inkscape-font-specification:'sans-serif Italic';stroke:none;-inkscape-stroke:none"
           d="m 114.56111,65.782524 q -3.59114,0 -5.68749,-2.205728 -2.07812,-2.223956 -2.07812,-6.052078 0,-2.223956 0.71093,-4.520829 0.72917,-2.315103 1.8776,-3.88281 1.80469,-2.442706 4.02865,-3.609372 2.22395,-1.166665 5.03124,-1.166665 3.48177,0 5.61458,2.169269 2.15104,2.169269 2.15104,5.669266 0,2.424477 -0.71094,4.830725 -0.71093,2.406248 -1.85937,3.992184 -1.78646,2.442706 -4.01041,3.609372 -2.22396,1.166666 -5.06771,1.166666 z m -4.28385,-8.367181 q 0,2.770831 1.14844,4.156247 1.16667,1.367186 3.51823,1.367186 3.37239,0 5.57812,-2.934893 2.22395,-2.953123 2.22395,-7.473952 0,-2.643227 -1.18489,-3.992184 -1.1849,-1.348958 -3.48177,-1.348958 -1.89583,0 -3.37239,0.893229 -1.47656,0.874999 -2.64323,2.679685 -0.85677,1.348957 -1.33073,3.080727 -0.45573,1.731769 -0.45573,3.572913 z"
           id="path7984" />
        <path
           style="color:#000000;-inkscape-font-specification:'sans-serif Italic';fill:#000000;stroke:none;-inkscape-stroke:none"
           d="m 118.44336,43.845703 c -1.94079,0 -3.7044,0.404675 -5.26367,1.222656 -1.5605,0.818619 -2.95842,2.079039 -4.19727,3.75586 h -0.002 v 0.002 c -0.80515,1.099094 -1.45218,2.443047 -1.95117,4.027344 v 0.002 c -0.48743,1.574791 -0.73438,3.134008 -0.73438,4.669922 0,2.642554 0.72977,4.805375 2.21289,6.392578 l 0.002,0.002 0.002,0.002 c 1.49578,1.573825 3.55237,2.361328 6.04883,2.361328 1.9642,0 3.7405,-0.406105 5.30078,-1.224609 1.56098,-0.81888 2.9547,-2.08016 4.18164,-3.757813 l 0.002,-0.002 c 0.80734,-1.114887 1.44737,-2.496879 1.9336,-4.142578 0.48688,-1.647926 0.73046,-3.307468 0.73046,-4.972656 0,-2.435131 -0.76701,-4.478022 -2.29492,-6.019532 -1.51723,-1.54317 -3.54568,-2.318359 -5.9707,-2.318359 z m 0,1 c 2.21734,0 3.9313,0.670346 5.25781,2.019531 h 0.002 v 0.002 c 1.33935,1.350708 2.00585,3.085508 2.00585,5.316407 0,1.567444 -0.22842,3.129051 -0.68945,4.689453 -0.46168,1.562628 -1.06124,2.840152 -1.78515,3.839844 -1.15455,1.578056 -2.43432,2.724634 -3.8379,3.460937 -1.405,0.737049 -3.00848,1.109375 -4.83593,1.109375 -2.29173,0 -4.02487,-0.683639 -5.32422,-2.050781 -1.28575,-1.377769 -1.94141,-3.247311 -1.94141,-5.707031 0,-1.429358 0.22898,-2.885344 0.68946,-4.373047 0.47289,-1.5006 1.0775,-2.744024 1.80273,-3.734375 v -0.002 c 1.16716,-1.579472 2.45301,-2.724197 3.85742,-3.460938 1.40599,-0.73757 2.99657,-1.109375 4.79883,-1.109375 z m -0.36328,1.84375 c -1.34084,0 -2.56433,0.319865 -3.62891,0.962891 -1.06438,0.630746 -1.99665,1.584943 -2.80664,2.83789 l -0.002,0.002 v 0.002 c -0.60073,0.945821 -1.06508,2.020178 -1.39258,3.216796 v 0.002 0.002 c -0.31492,1.196685 -0.47266,2.432489 -0.47266,3.701172 0,1.916298 0.39353,3.424912 1.26368,4.474609 l 0.002,0.002 0.002,0.0039 c 0.88546,1.037637 2.23384,1.542969 3.89844,1.542969 2.3933,0 4.4345,-1.080338 5.97852,-3.134766 1.55639,-2.066688 2.32421,-4.679518 2.32421,-7.77539 0,-1.836862 -0.4118,-3.301305 -1.30859,-4.322266 -0.89565,-1.019657 -2.22829,-1.517578 -3.85742,-1.517578 z m 0,1 c 1.43336,0 2.42125,0.398782 3.10547,1.177734 0.68306,0.777647 1.06054,1.974673 1.06054,3.66211 0,2.931894 -0.71417,5.303023 -2.12304,7.173828 -1.39696,1.858759 -3.07648,2.736328 -5.17969,2.736328 -1.46951,0 -2.46468,-0.407485 -3.13477,-1.191406 -5.9e-4,-6.89e-4 -10e-4,-0.0013 -0.002,-0.002 -0.65861,-0.797782 -1.0293,-2.05553 -1.0293,-3.830078 0,-1.185513 0.14706,-2.333557 0.43946,-3.445313 1.6e-4,-6.2e-4 -1.7e-4,-0.0013 0,-0.002 0.30432,-1.109763 0.72893,-2.088303 1.26953,-2.939453 0.74489,-1.151188 1.57131,-1.982291 2.47461,-2.517578 h 0.002 l 0.002,-0.002 c 0.90329,-0.546433 1.92988,-0.820313 3.11524,-0.820313 z"
           id="path7986" />
      </g>
      <g
         id="path7931">
        <path
           style="color:#000000;-inkscape-font-specification:'sans-serif Italic';stroke:none;-inkscape-stroke:none"
           d="m 148.72254,52.930972 -2.38802,12.322906 h -3.37239 l 2.38802,-12.195302 q 0.16406,-0.85677 0.25521,-1.51302 0.0911,-0.656249 0.0911,-1.039061 0,-1.531249 -0.96614,-2.388019 -0.96615,-0.85677 -2.69792,-0.85677 -2.69791,0 -4.64843,1.804686 -1.95052,1.786457 -2.55208,4.867183 l -2.24219,11.320303 h -3.35416 l 3.95573,-20.416649 h 3.35416 l -0.67448,3.20833 q 1.40364,-1.768227 3.37239,-2.734372 1.96875,-0.966145 4.13802,-0.966145 2.69791,0 4.17448,1.458332 1.49479,1.458332 1.49479,4.101559 0,0.656249 -0.0911,1.403644 -0.0729,0.747396 -0.23698,1.622395 z"
           id="path7990" />
        <path
           style="color:#000000;-inkscape-font-specification:'sans-serif Italic';fill:#000000;stroke:none;-inkscape-stroke:none"
           d="m 143.38086,43.845703 c -1.52041,0 -2.97972,0.341485 -4.35742,1.017578 -0.85576,0.419955 -1.61054,0.986336 -2.31446,1.623047 l 0.45313,-2.148437 h -4.38281 l -4.15039,21.416015 H 133 l 2.32227,-11.724609 c 0.38504,-1.971894 1.18478,-3.482176 2.39843,-4.59375 l 0.002,-0.002 c 1.21599,-1.125079 2.62342,-1.671875 4.31054,-1.671875 1.07206,0 1.83209,0.257683 2.36524,0.730468 0.53346,0.473071 0.79883,1.097999 0.79883,2.013672 0,0.215546 -0.029,0.54632 -0.0879,0.970703 -0.0592,0.42638 -0.14184,0.923463 -0.25,1.488282 l -2.5039,12.789062 h 4.39062 l 2.38868,-12.322265 h 0.002 l 0.0781,-0.408204 c 0.11088,-0.591293 0.18987,-1.141809 0.24024,-1.654296 0.0629,-0.51571 0.0957,-1.004209 0.0957,-1.464844 0,-1.855314 -0.54123,-3.379474 -1.64453,-4.457031 -1.0927,-1.079207 -2.6367,-1.601563 -4.52539,-1.601563 z m 0,1 c 1.70851,0 2.94816,0.447266 3.82422,1.3125 v 0.002 l 0.002,0.002 c 0.88845,0.866777 1.34375,2.074291 1.34375,3.742188 0,0.414362 -0.0293,0.862934 -0.0879,1.34375 v 0.0059 l -0.002,0.0059 c -0.0469,0.480953 -0.12337,1.006955 -0.23047,1.578125 l 0.002,-0.002 -2.31055,11.917969 h -2.35156 l 2.27149,-11.599609 v -0.002 c 0.11059,-0.57754 0.19745,-1.08849 0.25976,-1.53711 0.0626,-0.450614 0.0957,-0.814504 0.0957,-1.109375 0,-1.125989 -0.38004,-2.09243 -1.13477,-2.761718 -0.75505,-0.669574 -1.79233,-0.982422 -3.0293,-0.982422 -1.90914,0 -3.60201,0.655634 -4.98633,1.935547 -1.38703,1.270366 -2.28804,3.004888 -2.70507,5.140625 l -2.16211,10.916015 h -2.33789 l 3.76172,-19.416015 h 2.32617 l -0.54883,2.605468 0.88086,0.41211 c 0.89255,-1.124391 1.95478,-1.984051 3.20117,-2.595703 1.2473,-0.612099 2.54602,-0.914063 3.91797,-0.914063 z"
           id="path7992" />
      </g>
      <g
         id="path7933">
        <path
           style="color:#000000;-inkscape-font-specification:'sans-serif Italic';stroke:none;-inkscape-stroke:none"
           d="m 179.05584,62.191381 q -1.34895,1.768227 -3.1901,2.679685 -1.84114,0.911458 -4.08333,0.911458 -3.06249,0 -4.84895,-2.078124 -1.76823,-2.096352 -1.76823,-5.723953 0,-3.026039 1.07552,-5.760412 1.07552,-2.752602 3.11719,-4.921871 1.34895,-1.440103 3.04426,-2.187498 1.69531,-0.765624 3.55469,-0.765624 1.96875,0 3.46354,0.947916 1.51302,0.947915 2.33333,2.716143 l 2.1875,-11.119782 h 3.37239 l -5.52343,28.364559 h -3.3724 z M 168.647,57.378885 q 0,2.643227 1.18489,4.119788 1.20313,1.476561 3.31771,1.476561 1.56771,0 2.89843,-0.747395 1.34896,-0.765624 2.36979,-2.242186 1.07552,-1.531248 1.69531,-3.536455 0.6198,-2.005207 0.6198,-3.955726 0,-2.533852 -1.20313,-3.955725 -1.18489,-1.421874 -3.28125,-1.421874 -1.58593,0 -2.95312,0.747395 -1.36718,0.747395 -2.33333,2.15104 -1.05729,1.513019 -1.69531,3.518226 -0.61979,2.005207 -0.61979,3.846351 z"
           id="path7996" />
        <path
           style="color:#000000;-inkscape-font-specification:'sans-serif Italic';fill:#000000;stroke:none;-inkscape-stroke:none"
           d="m 183.5293,36.388672 -2.02539,10.304687 c -0.50535,-0.720843 -1.08456,-1.363316 -1.81641,-1.822265 l -0.002,-0.002 c -1.07988,-0.684186 -2.33671,-1.023438 -3.72852,-1.023438 -1.30677,0 -2.56433,0.269183 -3.75586,0.806641 -1.19305,0.525971 -2.26626,1.298906 -3.20703,2.302734 -1.40342,1.49113 -2.47891,3.188543 -3.21875,5.082031 -0.74001,1.881382 -1.10937,3.866766 -1.10937,5.94336 0,2.499638 0.6143,4.540658 1.88476,6.046875 l 0.002,0.002 0.002,0.002 c 1.28304,1.492518 3.07376,2.251953 5.22851,2.251953 1.56255,0 3.00494,-0.321401 4.30469,-0.964844 0.77708,-0.384693 1.47052,-0.911067 2.12109,-1.509765 l -0.40625,1.945312 h 4.40039 l 5.7168,-29.365234 z m 0.82226,1 h 2.35547 l -5.32812,27.365234 h -2.34571 l 0.51172,-2.460937 -0.88672,-0.404297 c -0.85789,1.124539 -1.85794,1.963014 -3.01367,2.535156 -1.1551,0.571833 -2.43429,0.859375 -3.86133,0.859375 -1.92636,0 -3.36836,-0.625022 -4.46679,-1.900391 v -0.002 c -1.08648,-1.288812 -1.65039,-3.064 -1.65039,-5.40039 0,-1.958121 0.34504,-3.813679 1.03906,-5.578125 h 0.002 c 0.69419,-1.776644 1.69682,-3.360493 3.01563,-4.761719 0.85735,-0.915293 1.81432,-1.602074 2.88086,-2.072266 l 0.002,-0.002 h 0.002 c 1.06772,-0.482193 2.17865,-0.720703 3.34961,-0.720703 1.23225,0 2.28263,0.290365 3.19531,0.869141 l 0.002,0.002 c 0.92459,0.579264 1.63464,1.398651 2.14648,2.501953 l 0.64649,1.396484 z m -8.10351,9.226562 c -1.13583,0 -2.2105,0.2713 -3.19336,0.808594 -0.98355,0.537678 -1.82086,1.314286 -2.50391,2.306641 -0.73655,1.054514 -1.32152,2.273055 -1.75976,3.65039 l -0.002,0.002 v 0.002 c -0.42594,1.378053 -0.64258,2.710607 -0.64258,3.99414 0,1.836862 0.41385,3.335635 1.29493,4.433594 h 0.002 v 0.002 c 0.8927,1.095577 2.18093,1.660156 3.70703,1.660156 1.1246,0 2.18234,-0.271231 3.14258,-0.810547 l 0.002,-0.002 c 0.97222,-0.551799 1.81705,-1.356714 2.5332,-2.392578 0.7489,-1.067066 1.33745,-2.292897 1.76368,-3.671875 0.4267,-1.380504 0.64062,-2.75021 0.64062,-4.103515 0,-1.767269 -0.42281,-3.217801 -1.31836,-4.277344 l -0.002,-0.002 c -0.88269,-1.05789 -2.15448,-1.59961 -3.66406,-1.59961 z m 0,1 c 1.28453,0 2.20135,0.40568 2.89843,1.242188 v 0.002 l 0.002,0.002 c 0.70748,0.836112 1.08398,2.022717 1.08398,3.632813 0,1.247384 -0.19796,2.513538 -0.59765,3.80664 -0.3997,1.293151 -0.94298,2.424644 -1.62696,3.398438 l -0.002,0.002 c -0.64437,0.932036 -1.37765,1.620837 -2.20313,2.089844 -0.81405,0.45721 -1.68666,0.683593 -2.65234,0.683593 -1.29159,0 -2.21664,-0.418301 -2.92773,-1.289062 -0.69878,-0.870787 -1.07618,-2.119203 -1.07618,-3.806641 0,-1.170117 0.19805,-2.401223 0.59766,-3.695312 0.41217,-1.295385 0.95445,-2.420437 1.62695,-3.382813 l 0.002,-0.002 v -0.002 c 0.60514,-0.87917 1.32275,-1.535292 2.16211,-1.994141 0.84006,-0.459231 1.73415,-0.6875 2.71289,-0.6875 z"
           id="path7998" />
      </g>
      <g
         id="path7935">
        <path
           style="color:#000000;-inkscape-font-specification:'sans-serif Italic';stroke:none;-inkscape-stroke:none"
           d="m 205.10531,53.222638 q 0.0547,-0.291666 0.0729,-0.601562 0.0365,-0.309895 0.0365,-0.619791 0,-2.223956 -1.3125,-3.518226 -1.29427,-1.29427 -3.53646,-1.29427 -2.49739,0 -4.41145,1.585936 -1.91406,1.567707 -2.89844,4.466143 z m 2.91667,2.624998 h -15.60416 q -0.10937,0.692708 -0.14583,1.093749 -0.0365,0.401042 -0.0365,0.692708 0,2.533852 1.54948,3.919267 1.56771,1.385416 4.41145,1.385416 2.1875,0 4.13802,-0.492187 1.95052,-0.492187 3.6276,-1.440103 l -0.63802,3.317705 q -1.80469,0.729166 -3.73698,1.093749 -1.91406,0.364584 -3.90103,0.364584 -4.2474,0 -6.54427,-2.023436 -2.27864,-2.041665 -2.27864,-5.778641 0,-3.190102 1.1302,-5.924474 1.14844,-2.752602 3.35417,-4.903642 1.42187,-1.348957 3.37239,-2.078123 1.96875,-0.729166 4.17448,-0.729166 3.46354,0 5.5052,2.078123 2.05989,2.078123 2.05989,5.57812 0,0.838541 -0.10937,1.804686 -0.10937,0.947916 -0.32812,2.041665 z"
           id="path8002" />
        <path
           style="color:#000000;-inkscape-font-specification:'sans-serif Italic';fill:#000000;stroke:none;-inkscape-stroke:none"
           d="m 200.89453,43.845703 c -1.52558,0 -2.97813,0.252533 -4.34766,0.759766 h -0.002 c -1.35775,0.507569 -2.54292,1.236679 -3.54101,2.183593 l -0.004,0.002 -0.002,0.0039 c -1.51576,1.478171 -2.67519,3.171026 -3.4668,5.068359 v 0.002 c -0.77969,1.886351 -1.16797,3.929455 -1.16797,6.115235 0,2.59294 0.8133,4.688107 2.44531,6.15039 l 0.002,0.002 v 0.002 c 1.64595,1.450008 3.964,2.148437 6.875,2.148437 1.35522,0 2.68686,-0.125994 3.99414,-0.375 v 0.002 c 1.32,-0.249057 2.59827,-0.62456 3.83203,-1.123047 l 0.25195,-0.101562 0.89258,-4.646485 -0.93945,0.53125 c -1.07804,0.609327 -2.24444,1.072814 -3.50391,1.390625 -1.25735,0.317276 -2.59479,0.478516 -4.01562,0.478516 -1.8126,0 -3.14555,-0.437284 -4.07813,-1.259766 -0.92007,-0.822653 -1.38281,-1.957607 -1.38281,-3.544921 0,-0.173587 0.01,-0.391973 0.0332,-0.648438 0.0136,-0.149541 0.0544,-0.412464 0.0859,-0.638672 h 14.55664 0.60937 v -1 l 0.49024,0.597656 c 0.14814,-0.740689 0.26118,-1.434134 0.33594,-2.082031 v -0.002 c 0.0747,-0.660161 0.11132,-1.27861 0.11132,-1.859375 0,-2.430359 -0.73235,-4.444785 -2.20312,-5.929687 -1.46016,-1.486243 -3.4523,-2.226563 -5.86133,-2.226563 z m 0,1 c 2.20903,0 3.88639,0.643149 5.14844,1.927734 l 0.002,0.002 c 1.27446,1.285738 1.91406,2.991323 1.91406,5.226562 0,0.537289 -0.0344,1.120016 -0.10546,1.748047 -0.0568,0.491698 -0.15494,1.041091 -0.25782,1.597656 h -15.60547 l -0.0664,0.421875 c -0.0739,0.468033 -0.12435,0.840549 -0.15039,1.126953 -0.0253,0.278258 -0.0371,0.522981 -0.0371,0.738282 0,1.791151 0.56895,3.266451 1.71484,4.291015 l 0.002,0.002 c 1.15755,1.022949 2.76712,1.511719 4.74415,1.511719 1.49583,0 2.91642,-0.168839 4.25976,-0.507812 1.01649,-0.256497 1.93181,-0.690798 2.84375,-1.128907 l -0.41016,2.13086 c -1.09842,0.42678 -2.22501,0.771155 -3.39648,0.992187 v 0.002 c -1.2448,0.237106 -2.51453,0.355469 -3.80859,0.355469 -2.75097,0 -4.79448,-0.649671 -6.21094,-1.896484 l -0.002,-0.002 c -1.4048,-1.259803 -2.10938,-3.015779 -2.10938,-5.404297 0,-2.067011 0.36503,-3.973425 1.0918,-5.732422 v -0.002 c 0.73858,-1.769636 1.81454,-3.342451 3.23633,-4.730469 l 0.002,-0.002 c 0.89692,-0.850429 1.95787,-1.50642 3.19922,-1.970703 1.25547,-0.464988 2.58656,-0.697266 4.00195,-0.697266 z m -0.5293,1.84375 c -1.76983,0 -3.37066,0.574929 -4.72851,1.699219 -1.36039,1.114224 -2.37553,2.69167 -3.05469,4.691406 l -0.22461,0.662109 13.16211,-0.01953 0.0781,-0.408203 c 0.0387,-0.206554 0.0623,-0.418514 0.0762,-0.634766 0.0266,-0.225825 0.041,-0.451507 0.041,-0.677734 0,-1.579944 -0.48334,-2.909823 -1.45898,-3.873047 -0.96493,-0.964928 -2.29963,-1.439453 -3.89063,-1.439453 z m 0,1 c 1.39859,0 2.42283,0.385721 3.1836,1.146484 l 0.002,0.002 v 0.002 c 0.77305,0.762314 1.16406,1.777834 1.16406,3.162109 0,0.186967 -0.0111,0.373179 -0.0332,0.560547 l -0.002,0.01367 v 0.01563 c -0.003,0.04525 -0.0117,0.08643 -0.0156,0.130859 l -10.82031,0.01563 c 0.61383,-1.50415 1.39733,-2.732221 2.42773,-3.576172 v -0.002 h 0.002 c 1.19377,-0.989126 2.53271,-1.470703 4.09179,-1.470703 z"
           id="path8004" />
      </g>
      <g
         id="path7937">
        <path
           style="color:#000000;-inkscape-font-specification:'sans-serif Italic';stroke:none;-inkscape-stroke:none"
           d="m 228.78497,45.438791 -0.63802,3.171872 q -1.33073,-0.729166 -2.80729,-1.093749 -1.47656,-0.364583 -3.04427,-0.364583 -2.64323,0 -4.17448,0.911458 -1.51302,0.893228 -1.51302,2.442706 0,1.804686 3.53646,2.770831 0.27344,0.07292 0.40104,0.109375 l 1.07552,0.328124 q 3.35416,0.929687 4.46614,1.95052 1.13021,1.020832 1.13021,2.78906 0,3.244789 -2.58854,5.286454 -2.57031,2.041665 -6.74478,2.041665 -1.6224,0 -3.40886,-0.309896 -1.78645,-0.309896 -3.93749,-0.966145 l 0.65625,-3.463539 q 1.84114,0.947916 3.6276,1.440103 1.78645,0.492187 3.42708,0.492187 2.46093,0 3.99218,-1.057291 1.54948,-1.05729 1.54948,-2.679685 0,-1.749998 -4.04687,-2.825518 l -0.34636,-0.09115 -1.14843,-0.291666 q -2.55208,-0.674479 -3.73698,-1.768228 -1.18489,-1.111978 -1.18489,-2.825518 0,-3.263018 2.4427,-5.177079 2.46094,-1.914061 6.67187,-1.914061 1.65886,0 3.22656,0.273437 1.58594,0.273437 3.11719,0.820312 z"
           id="path8008" />
        <path
           style="color:#000000;-inkscape-font-specification:'sans-serif Italic';fill:#000000;stroke:none;-inkscape-stroke:none"
           d="m 222.44141,43.845703 c -2.88305,0 -5.2288,0.658643 -6.97852,2.019531 h -0.002 c -1.73705,1.36112 -2.63477,3.270203 -2.63477,5.570313 0,1.257606 0.46038,2.362389 1.34375,3.191406 l 0.002,0.002 c 0.88376,0.815774 2.20177,1.422939 3.94922,1.884766 h 0.002 l 1.14843,0.292969 0.34375,0.08984 c 1.31643,0.349861 2.28193,0.754478 2.87696,1.169922 0.59502,0.415444 0.79883,0.781251 0.79883,1.171875 0,0.92242 -0.3974,1.629831 -1.33204,2.267578 h -0.002 c -0.91777,0.633701 -2.13997,0.96875 -3.70898,0.96875 -1.04376,0 -2.13979,-0.154942 -3.29297,-0.472656 -1.15414,-0.317975 -2.33298,-0.786358 -3.53321,-1.404297 l -0.59375,-0.30664 -0.86523,4.5625 0.42969,0.130859 c 1.44996,0.442362 2.77986,0.769489 3.99609,0.980469 1.21609,0.210953 2.38266,0.318359 3.4961,0.318359 2.86378,0 5.23614,-0.708002 7.05273,-2.150391 1.82682,-1.44087 2.7793,-3.381585 2.7793,-5.677734 0,-1.285347 -0.43489,-2.383349 -1.29493,-3.160156 -0.86852,-0.795757 -2.39761,-1.432106 -4.65429,-2.058594 l -0.0137,-0.0039 -1.06641,-0.326172 h -0.004 c -0.0907,-0.02591 -0.22582,-0.06268 -0.4082,-0.111328 h -0.002 c -1.13948,-0.311502 -1.96655,-0.691353 -2.47266,-1.087891 -0.50644,-0.3968 -0.69336,-0.76291 -0.69336,-1.201172 0,-0.870239 0.36789,-1.480579 1.26758,-2.011718 h 0.002 c 0.91218,-0.542963 2.21329,-0.841797 3.91797,-0.841797 1.00638,0 1.98139,0.116426 2.92578,0.349609 0.943,0.232839 1.83595,0.581339 2.68555,1.046875 l 0.59766,0.326172 0.85742,-4.261719 -0.40821,-0.144531 c -1.04686,-0.373881 -2.11411,-0.656554 -3.19921,-0.84375 h -0.002 c -1.07394,-0.187201 -2.17783,-0.279297 -3.31054,-0.279297 z m 0,1 c 1.07843,0 2.1249,0.08846 3.14062,0.265625 0.88784,0.153074 1.75723,0.40411 2.61914,0.689453 l -0.42773,2.132813 c -0.74833,-0.358829 -1.5035,-0.702107 -2.31446,-0.902344 -1.02435,-0.252927 -2.08016,-0.378906 -3.16406,-0.378906 -1.81962,0 -3.3002,0.310108 -4.42969,0.982422 -1.11607,0.659872 -1.75781,1.676285 -1.75781,2.871093 0,0.764861 0.4038,1.463425 1.07617,1.990235 0.67238,0.526809 1.61114,0.931195 2.82813,1.263672 h 0.002 0.002 c 0.18096,0.04826 0.31356,0.08484 0.39258,0.107421 l 1.07227,0.328125 0.008,0.002 c 2.20442,0.611007 3.64724,1.273617 4.25977,1.835937 l 0.002,0.002 0.002,0.002 c 0.64691,0.584301 0.96485,1.345681 0.96485,2.417969 0,2.030232 -0.77388,3.611231 -2.39844,4.892578 v 0.002 c -1.61031,1.279112 -3.73213,1.933594 -6.43359,1.933594 -1.04977,0 -2.15837,-0.100494 -3.32422,-0.302734 -1.03528,-0.179589 -2.20878,-0.484466 -3.44336,-0.845703 l 0.45508,-2.40625 c 1.04642,0.498945 2.08954,0.953203 3.11718,1.236328 1.22876,0.338535 2.41484,0.509765 3.5586,0.509765 1.7115,0 3.1517,-0.369183 4.27539,-1.144531 1.13134,-0.771972 1.76758,-1.851025 1.76758,-3.091797 0,-0.77604 -0.47263,-1.465793 -1.22657,-1.992187 -0.75393,-0.526395 -1.81187,-0.949255 -3.19336,-1.316407 l -0.34961,-0.0918 -1.14453,-0.291016 -0.006,-0.002 c -1.65009,-0.43692 -2.82239,-1.007415 -3.51757,-1.648438 l -0.002,-0.002 c -0.69502,-0.65321 -1.02539,-1.432919 -1.02539,-2.458984 0,-2.050576 0.73207,-3.592244 2.25195,-4.783203 1.53137,-1.190187 3.63293,-1.806641 6.36329,-1.806641 z"
           id="path8010" />
      </g>
      <g
         id="path7939">
        <path
           style="color:#000000;-inkscape-font-specification:'sans-serif Italic';stroke:none;-inkscape-stroke:none"
           d="m 236.40476,36.889319 h 3.35417 l -0.82031,4.247392 h -3.35417 z m -1.53124,7.94791 h 3.35416 l -3.99218,20.416649 h -3.35417 z"
           id="path8014" />
        <path
           style="color:#000000;-inkscape-font-specification:'sans-serif Italic';fill:#000000;stroke:none;-inkscape-stroke:none"
           d="m 235.99219,36.388672 -0.0781,0.40625 -0.93554,4.841797 h 4.37304 l 1.01367,-5.248047 z m 0.82617,1 h 2.33398 l -0.62695,3.248047 h -2.33398 z m -2.35742,6.949219 -0.0781,0.404296 -4.10937,21.011719 h 4.37304 l 4.1875,-21.416015 z m 0.82422,1 h 2.33398 l -3.79492,19.416015 h -2.33594 z"
           id="path8016" />
      </g>
      <g
         id="path7941">
        <path
           style="color:#000000;-inkscape-font-specification:'sans-serif Italic';stroke:none;-inkscape-stroke:none"
           d="m 262.199,44.837229 -3.48177,17.882797 q -1.0026,5.195308 -3.84635,7.747389 -2.82552,2.552082 -7.61978,2.552082 -1.76823,0 -3.28125,-0.273438 -1.51302,-0.255208 -2.82552,-0.802082 l 0.61979,-3.263018 q 1.23959,0.802082 2.625,1.184894 1.38542,0.382813 2.95312,0.382813 3.1901,0 5.23177,-1.749999 2.05989,-1.731769 2.71614,-4.994787 l 0.29167,-1.531249 q -1.40365,1.604165 -3.26302,2.442706 -1.85937,0.838541 -4.01041,0.838541 -3.09896,0 -4.88541,-2.041665 -1.76823,-2.059894 -1.76823,-5.651037 0,-2.825518 1.07552,-5.523432 1.07552,-2.716144 3.02604,-4.812496 1.29427,-1.385416 3.00781,-2.132811 1.73177,-0.747395 3.60937,-0.747395 2.05989,0 3.59114,0.966145 1.53125,0.947916 2.27865,2.697914 l 0.58333,-3.171872 z m -5.04947,7.492181 q 0,-2.479165 -1.16667,-3.828122 -1.16666,-1.348957 -3.3177,-1.348957 -1.33073,0 -2.53386,0.528645 -1.20312,0.528646 -2.05989,1.476562 -1.38542,1.567707 -2.16927,3.700517 -0.76562,2.114582 -0.76562,4.374997 0,2.515622 1.16666,3.86458 1.1849,1.348957 3.39062,1.348957 3.19011,0 5.32292,-2.880206 2.13281,-2.898435 2.13281,-7.236973 z"
           id="path8020" />
        <path
           style="color:#000000;-inkscape-font-specification:'sans-serif Italic';fill:#000000;stroke:none;-inkscape-stroke:none"
           d="m 252.37305,43.845703 c -1.31808,0 -2.59177,0.262796 -3.80664,0.787109 h -0.002 v 0.002 c -1.20384,0.525081 -2.26646,1.27873 -3.17383,2.25 -1.34248,1.442855 -2.3861,3.102731 -3.125,4.96875 -0.73924,1.854381 -1.11132,3.759913 -1.11132,5.707031 0,2.476157 0.61631,4.494338 1.88867,5.976562 l 0.002,0.002 0.002,0.002 c 1.28532,1.468937 3.08595,2.21289 5.26172,2.21289 1.499,0 2.9094,-0.29408 4.21485,-0.882812 0.88465,-0.398962 1.59133,-1.095548 2.32812,-1.740235 l -0.0527,0.279297 c -0.42126,2.090588 -1.27295,3.634077 -2.54688,4.705078 l -0.002,0.002 -0.002,0.002 c -1.26342,1.082923 -2.87095,1.628906 -4.90625,1.628906 -1.00444,0 -1.94337,-0.120968 -2.82032,-0.363281 -0.87409,-0.241528 -1.7008,-0.614771 -2.48632,-1.123047 l -0.62305,-0.404297 -0.83399,4.392578 0.37305,0.15625 c 0.91248,0.380197 1.89249,0.656094 2.93555,0.832031 1.0407,0.187701 2.16272,0.28125 3.36523,0.28125 3.28489,0 5.96506,-0.885966 7.95313,-2.68164 1.9986,-1.794184 3.32174,-4.488197 4.0039,-8.021485 v -0.002 l 3.59766,-18.476562 h -0.60742 -3.78906 l -0.42383,2.302734 c -0.48109,-0.690573 -1.03716,-1.306601 -1.75586,-1.751953 l -0.002,-0.002 c -1.10594,-0.697169 -2.40499,-1.041016 -3.85547,-1.041016 z m 0,1 c 1.29508,0 2.38896,0.298568 3.32422,0.888672 h 0.002 l 0.002,0.002 c 0.9347,0.578625 1.6194,1.385523 2.08203,2.46875 l 0.65235,1.525391 0.80664,-4.392578 h 2.35156 L 258.22656,62.625 c -0.65462,3.392132 -1.8974,5.862454 -3.68945,7.470703 h -0.002 c -1.77929,1.607099 -4.17576,2.423828 -7.28321,2.423828 -1.15304,0 -2.21822,-0.08939 -3.19336,-0.265625 h -0.002 -0.004 c -0.83695,-0.141173 -1.59824,-0.384564 -2.33398,-0.662109 l 0.41992,-2.199219 c 0.68421,0.378105 1.37165,0.749072 2.11719,0.955078 0.97028,0.268103 2.00011,0.400391 3.08594,0.400391 2.21713,0 4.09616,-0.617949 5.55468,-1.867188 l 0.002,-0.002 c 1.47045,-1.237153 2.42896,-3.020694 2.88281,-5.277344 v -0.002 l 0.63672,-3.341797 -1.21289,1.384766 c -0.89215,1.019594 -1.91816,1.787118 -3.0918,2.316406 -1.17371,0.529321 -2.43563,0.794922 -3.80469,0.794922 -1.95393,0 -3.40967,-0.616786 -4.50586,-1.867187 v -0.002 c -1.08457,-1.2642 -1.64843,-3.012959 -1.64843,-5.324219 0,-1.820236 0.34623,-3.595057 1.04101,-5.337891 0.69513,-1.755503 1.66953,-3.303972 2.92774,-4.65625 0.81768,-0.87496 1.76008,-1.544432 2.83984,-2.015625 1.09415,-0.472212 2.22477,-0.705078 3.41016,-0.705078 z m 0.29297,1.806641 c -0.95337,0 -1.87209,0.190572 -2.73633,0.570312 -0.86283,0.379122 -1.61028,0.915596 -2.22852,1.59961 l -0.002,0.002 -0.002,0.002 c -0.96714,1.094383 -1.72189,2.385209 -2.26368,3.859375 l -0.002,0.002 c -0.52983,1.463343 -0.79492,2.981529 -0.79492,4.544922 0,1.754374 0.41069,3.175787 1.28906,4.191406 v 0.002 l 0.002,0.002 c 0.89146,1.01488 2.19322,1.519532 3.76563,1.519532 2.27721,0 4.23179,-1.068036 5.72461,-3.083985 h 0.002 c 1.49246,-2.028209 2.23047,-4.558914 2.23047,-7.533203 0,-1.731206 -0.41214,-3.142317 -1.28906,-4.15625 -0.87723,-1.014302 -2.15677,-1.521484 -3.69531,-1.521484 z m 0,1 c 1.3295,0 2.26113,0.391476 2.93945,1.175781 0.67864,0.784675 1.04492,1.92761 1.04492,3.501953 0,2.810423 -0.68582,5.103086 -2.03711,6.939453 -1.35071,1.823417 -2.94413,2.677735 -4.91992,2.677735 -1.36855,0 -2.32526,-0.39596 -3.01367,-1.179688 -0.67547,-0.782936 -1.04297,-1.937479 -1.04297,-3.535156 0,-1.450491 0.24533,-2.848982 0.73633,-4.205078 0.50288,-1.366824 1.19197,-2.54269 2.07031,-3.53711 5.7e-4,-6.48e-4 10e-4,-0.0013 0.002,-0.002 0.52336,-0.577899 1.14713,-1.024634 1.88672,-1.349609 0.73993,-0.325119 1.51304,-0.486328 2.33399,-0.486328 z"
           id="path8022" />
      </g>
      <g
         id="path7943">
        <path
           style="color:#000000;-inkscape-font-specification:'sans-serif Italic';stroke:none;-inkscape-stroke:none"
           d="m 284.43858,52.930972 -2.38802,12.322906 h -3.3724 l 2.38802,-12.195302 q 0.16407,-0.85677 0.25521,-1.51302 0.0911,-0.656249 0.0911,-1.039061 0,-1.531249 -0.96615,-2.388019 -0.96614,-0.85677 -2.69791,-0.85677 -2.69792,0 -4.64844,1.804686 -1.95052,1.786457 -2.55208,4.867183 l -2.24218,11.320303 h -3.35417 l 3.95573,-20.416649 h 3.35416 l -0.67448,3.20833 q 1.40365,-1.768227 3.3724,-2.734372 1.96875,-0.966145 4.13801,-0.966145 2.69792,0 4.17448,1.458332 1.49479,1.458332 1.49479,4.101559 0,0.656249 -0.0912,1.403644 -0.0729,0.747396 -0.23697,1.622395 z"
           id="path8026" />
        <path
           style="color:#000000;-inkscape-font-specification:'sans-serif Italic';fill:#000000;stroke:none;-inkscape-stroke:none"
           d="m 279.09766,43.845703 c -1.52041,0 -2.98168,0.341485 -4.35938,1.017578 -0.85545,0.419803 -1.60878,0.986645 -2.3125,1.623047 l 0.45117,-2.148437 h -4.38281 l -4.14844,21.416015 h 4.3711 l 2.32226,-11.724609 c 0.38505,-1.971894 1.18478,-3.482176 2.39844,-4.59375 l 0.002,-0.002 c 1.216,-1.125078 2.62147,-1.671875 4.3086,-1.671875 1.07205,0 1.83405,0.257685 2.36718,0.730468 0.53347,0.473072 0.79688,1.098 0.79688,2.013672 0,0.215546 -0.027,0.54632 -0.0859,0.970703 -0.0592,0.426374 -0.14379,0.923466 -0.25195,1.488282 l 0.002,-0.002 -2.50586,12.791015 h 4.39258 l 2.4668,-12.730469 0.11523,-0.591796 h -0.0293 c 0.0574,-0.361527 0.1239,-0.733317 0.15625,-1.0625 0.0629,-0.515729 0.0957,-1.004183 0.0957,-1.464844 0,-1.855313 -0.54124,-3.379475 -1.64453,-4.457031 -1.0927,-1.079208 -2.63669,-1.601563 -4.52539,-1.601563 z m 0,1 c 1.70852,0 2.94621,0.447267 3.82226,1.3125 l 0.002,0.002 v 0.002 c 0.88845,0.866777 1.34571,2.074291 1.34571,3.742188 0,0.414337 -0.0292,0.862953 -0.0879,1.34375 l -0.002,0.0059 v 0.0059 c -0.0469,0.480956 -0.12336,1.006954 -0.23046,1.578125 l -2.3086,11.916015 h -2.35351 l 2.27148,-11.599609 v -0.002 c 0.1106,-0.577544 0.19746,-1.088484 0.25977,-1.53711 0.0625,-0.450614 0.0957,-0.814504 0.0957,-1.109375 0,-1.12599 -0.38003,-2.092431 -1.13477,-2.761718 -0.75505,-0.669575 -1.79232,-0.982422 -3.02929,-0.982422 -1.90915,0 -3.60202,0.655634 -4.98633,1.935547 -1.38703,1.270366 -2.28804,3.004888 -2.70508,5.140625 l -2.16211,10.916015 h -2.33594 l 3.76172,-19.416015 h 2.32422 l -0.54687,2.605468 0.88086,0.41211 c 0.89256,-1.124391 1.95478,-1.984051 3.20117,-2.595703 1.2473,-0.6121 2.54602,-0.914063 3.91797,-0.914063 z"
           id="path8028" />
      </g>
      <g
         id="path7945">
        <path
           style="color:#000000;-inkscape-font-specification:'sans-serif Italic';stroke:none;-inkscape-stroke:none"
           d="m 317.83438,45.438791 -0.63802,3.171872 q -1.33073,-0.729166 -2.80729,-1.093749 -1.47657,-0.364583 -3.04427,-0.364583 -2.64323,0 -4.17448,0.911458 -1.51302,0.893228 -1.51302,2.442706 0,1.804686 3.53646,2.770831 0.27344,0.07292 0.40104,0.109375 l 1.07552,0.328124 q 3.35416,0.929687 4.46614,1.95052 1.13021,1.020832 1.13021,2.78906 0,3.244789 -2.58854,5.286454 -2.57031,2.041665 -6.74479,2.041665 -1.62239,0 -3.40885,-0.309896 -1.78646,-0.309896 -3.93749,-0.966145 l 0.65624,-3.463539 q 1.84115,0.947916 3.62761,1.440103 1.78645,0.492187 3.42708,0.492187 2.46093,0 3.99218,-1.057291 1.54948,-1.05729 1.54948,-2.679685 0,-1.749998 -4.04687,-2.825518 l -0.34636,-0.09115 -1.14843,-0.291666 q -2.55209,-0.674479 -3.73698,-1.768228 -1.18489,-1.111978 -1.18489,-2.825518 0,-3.263018 2.4427,-5.177079 2.46094,-1.914061 6.67187,-1.914061 1.65885,0 3.22656,0.273437 1.58594,0.273437 3.11719,0.820312 z"
           id="path8032" />
        <path
           style="color:#000000;-inkscape-font-specification:'sans-serif Italic';fill:#000000;stroke:none;-inkscape-stroke:none"
           d="m 311.49023,43.845703 c -2.88304,0 -5.22879,0.658643 -6.97851,2.019531 h -0.002 c -1.73705,1.36112 -2.63282,3.270203 -2.63282,5.570313 0,1.257606 0.45842,2.362389 1.3418,3.191406 h 0.002 l 0.002,0.002 c 0.88375,0.815775 2.1998,1.422939 3.94726,1.884766 h 0.002 l 1.14844,0.292969 0.34375,0.08984 c 1.31643,0.349861 2.28193,0.754478 2.87696,1.169922 0.59502,0.415444 0.79882,0.781251 0.79882,1.171875 0,0.92242 -0.3974,1.629831 -1.33203,2.267578 h -0.002 c -0.91777,0.633701 -2.13802,0.96875 -3.70703,0.96875 -1.04375,0 -2.14175,-0.154942 -3.29492,-0.472656 -1.15414,-0.317975 -2.33102,-0.786358 -3.53125,-1.404297 l -0.59571,-0.30664 -0.86523,4.5625 0.42969,0.130859 c 1.44996,0.442362 2.78181,0.769489 3.99804,0.980469 1.21609,0.210953 2.38072,0.318359 3.49414,0.318359 2.8645,0 5.23792,-0.707284 7.05469,-2.150391 1.82682,-1.44087 2.7793,-3.381585 2.7793,-5.677734 0,-1.285347 -0.43684,-2.383349 -1.29688,-3.160156 -0.86879,-0.796001 -2.39647,-1.431919 -4.65429,-2.058594 l -1.08008,-0.330078 h -0.004 c -0.0903,-0.0258 -0.22511,-0.06301 -0.40625,-0.111328 -1.14064,-0.311619 -1.97012,-0.691091 -2.47656,-1.087891 -0.50644,-0.3968 -0.69141,-0.76291 -0.69141,-1.201172 0,-0.870239 0.36594,-1.480579 1.26563,-2.011718 h 0.002 c 0.91218,-0.542963 2.21524,-0.841797 3.91992,-0.841797 1.00638,0 1.97943,0.116426 2.92383,0.349609 0.943,0.232839 1.8379,0.581339 2.6875,1.046875 l 0.5957,0.326172 0.85743,-4.261719 -0.40821,-0.144531 c -1.04746,-0.374094 -2.11347,-0.656554 -3.19922,-0.84375 -1.07454,-0.18742 -2.17912,-0.279297 -3.3125,-0.279297 z m 0,1 c 1.07843,0 2.1249,0.08846 3.14063,0.265625 h 0.002 c 0.88837,0.153167 1.75672,0.403858 2.61914,0.689453 l -0.42773,2.13086 c -0.74813,-0.358682 -1.50373,-0.700211 -2.31445,-0.900391 -1.02436,-0.252927 -2.08017,-0.378906 -3.16407,-0.378906 -1.81962,0 -3.30215,0.310108 -4.43164,0.982422 -1.11608,0.659872 -1.75586,1.676285 -1.75586,2.871093 0,0.764861 0.40185,1.463425 1.07422,1.990235 0.67238,0.526809 1.61309,0.931195 2.83008,1.263672 h 0.002 c 0.18096,0.04826 0.31355,0.08484 0.39258,0.107421 l 1.07422,0.328125 0.006,0.002 c 2.20442,0.611007 3.64919,1.273617 4.26172,1.835937 l 0.002,0.002 v 0.002 c 0.64691,0.584301 0.9668,1.345681 0.9668,2.417969 0,2.030232 -0.77387,3.611231 -2.39844,4.892578 l -0.002,0.002 c -1.61031,1.279112 -3.73213,1.933594 -6.4336,1.933594 -1.04975,0 -2.15836,-0.100494 -3.32422,-0.302734 -1.03527,-0.179589 -2.20878,-0.484466 -3.44335,-0.845703 l 0.45507,-2.40625 c 1.04643,0.498945 2.08955,0.953203 3.11719,1.236328 1.22875,0.338535 2.4168,0.509765 3.56055,0.509765 1.7115,0 3.14975,-0.369183 4.27344,-1.144531 1.13134,-0.771972 1.76757,-1.851025 1.76757,-3.091797 0,-0.77604 -0.47263,-1.465793 -1.22656,-1.992187 -0.75393,-0.526395 -1.80992,-0.949255 -3.19141,-1.316407 h -0.002 l -0.34765,-0.0918 -1.14649,-0.291016 -0.004,-0.002 c -1.65128,-0.436996 -2.82404,-1.007125 -3.51953,-1.648438 l -0.002,-0.002 c -0.69502,-0.65321 -1.02344,-1.432919 -1.02344,-2.458984 0,-2.050576 0.73012,-3.592244 2.25,-4.783203 1.53137,-1.190187 3.63293,-1.806641 6.36328,-1.806641 z"
           id="path8034" />
      </g>
      <g
         id="path7947">
        <path
           style="color:#000000;-inkscape-font-specification:'sans-serif Italic';stroke:none;-inkscape-stroke:none"
           d="m 334.40467,44.837229 -0.51042,2.606768 h -6.69009 l -2.16927,11.083324 q -0.10938,0.619791 -0.16407,1.039062 -0.0547,0.41927 -0.0547,0.656249 0,1.166666 0.6927,1.695311 0.71094,0.528646 2.26042,0.528646 h 3.39062 l -0.5651,2.807289 h -3.20833 q -2.98958,0 -4.46615,-1.166666 -1.45833,-1.166665 -1.45833,-3.536455 0,-0.41927 0.0547,-0.911457 0.0547,-0.510417 0.16406,-1.111979 l 2.16927,-11.083324 h -2.84375 l 0.52865,-2.606768 h 2.78906 l 1.13021,-5.79687 h 3.35416 l -1.11198,5.79687 z"
           id="path8038" />
        <path
           style="color:#000000;-inkscape-font-specification:'sans-serif Italic';fill:#000000;stroke:none;-inkscape-stroke:none"
           d="m 325.04297,38.541016 -1.13086,5.796875 h -2.78516 l -0.73242,3.605468 h 2.84766 l -2.05274,10.492188 v 0.002 c -0.0747,0.411092 -0.13191,0.79375 -0.16992,1.148437 -0.038,0.342836 -0.0566,0.664194 -0.0566,0.964844 0,1.682423 0.54336,3.046795 1.64453,3.927735 h 0.002 v 0.002 c 1.11318,0.87954 2.71926,1.273437 4.77735,1.273437 h 3.61719 l 0.76757,-3.80664 h -4.00195 c -0.97314,0 -1.62173,-0.180263 -1.95703,-0.427735 -0.32078,-0.244811 -0.49609,-0.618055 -0.49609,-1.296875 0,-0.119515 0.0159,-0.324267 0.0508,-0.591797 0.0347,-0.265861 0.0872,-0.604822 0.1582,-1.007812 l 0.002,-0.0098 2.08789,-10.669922 h 6.69141 l 0.70508,-3.605468 h -0.60742 -6.10352 l 1.11328,-5.796875 z m 0.82226,1 h 2.33789 l -1.11132,5.796875 h 6.70507 l -0.31445,1.605468 h -6.68945 l -2.25,11.492188 v 0.0039 c -0.0738,0.418151 -0.13007,0.771927 -0.16797,1.0625 -0.038,0.291496 -0.0586,0.524247 -0.0586,0.720703 0,0.876734 0.28585,1.631749 0.88867,2.091797 l 0.002,0.002 0.004,0.002 c 0.61353,0.456217 1.46874,0.628907 2.55859,0.628907 h 2.7793 l -0.36328,1.80664 h -2.79883 c -1.92666,0 -3.29859,-0.381513 -4.1543,-1.05664 l -0.002,-0.002 c -0.84183,-0.674581 -1.26758,-1.668507 -1.26758,-3.144531 0,-0.257769 0.016,-0.542835 0.0508,-0.855469 v -0.002 c 0.0347,-0.324131 0.0877,-0.681745 0.1582,-1.070312 v -0.0059 l 2.28516,-11.673828 h -2.83984 l 0.32617,-1.605468 h 2.79297 z"
           id="path8040" />
      </g>
      <g
         id="path7949">
        <path
           style="color:#000000;-inkscape-font-specification:'sans-serif Italic';stroke:none;-inkscape-stroke:none"
           d="m 335.75362,57.160135 2.38802,-12.322906 h 3.37239 l -2.38802,12.195302 q -0.18229,0.893228 -0.27344,1.531249 -0.0729,0.63802 -0.0729,1.05729 0,1.549478 0.94791,2.406248 0.94792,0.838541 2.67969,0.838541 2.69791,0 4.66666,-1.822915 1.96875,-1.822915 2.57031,-4.903641 l 2.24219,-11.302074 h 3.35416 l -3.95572,20.416649 h -3.35417 l 0.67448,-3.20833 q -1.42187,1.786456 -3.39062,2.77083 -1.95052,0.966146 -4.15625,0.966146 -2.67968,0 -4.17447,-1.458333 -1.49479,-1.476561 -1.49479,-4.101559 0,-0.546874 0.0911,-1.367186 0.0911,-0.820312 0.27344,-1.695311 z"
           id="path8044" />
        <path
           style="color:#000000;-inkscape-font-specification:'sans-serif Italic';fill:#000000;stroke:none;-inkscape-stroke:none"
           d="m 337.72852,44.337891 -2.45118,12.654296 -0.0137,0.06641 v 0.0059 c -0.12392,0.595532 -0.21883,1.174314 -0.28125,1.736328 -0.0621,0.558989 -0.0937,1.029529 -0.0937,1.421875 0,1.844904 0.54262,3.368554 1.64453,4.457031 v 0.002 h 0.002 c 1.10342,1.076511 2.64628,1.601562 4.52343,1.601562 1.54349,0 3.00944,-0.342161 4.37696,-1.019531 h 0.002 c 0.85837,-0.429186 1.61827,-1.007403 2.32812,-1.654297 l -0.45117,2.144531 h 4.38282 l 4.15039,-21.416015 h -4.3711 l -2.32226,11.705078 c -0.38494,1.971326 -1.19183,3.495689 -2.41993,4.632812 -1.22895,1.137919 -2.64017,1.689453 -4.32617,1.689453 -1.07299,0 -1.82892,-0.254643 -2.34765,-0.71289 h -0.002 c -0.51796,-0.470254 -0.77929,-1.102685 -0.77929,-2.03125 0,-0.247092 0.0225,-0.580997 0.0684,-0.986328 l 0.002,-0.0098 c 1.8e-4,-0.0016 -1.8e-4,-0.0023 0,-0.0039 0.0588,-0.409387 0.14658,-0.904977 0.26562,-1.488282 l 0.002,-0.002 2.5039,-12.792968 z m 0.82617,1 h 2.35156 l -2.27148,11.597656 0.002,-0.0039 c -0.12293,0.602339 -0.21655,1.121342 -0.2793,1.560546 V 58.5 l -0.002,0.0078 c -0.05,0.43762 -0.0762,0.80479 -0.0762,1.113282 0,1.134944 0.3701,2.105621 1.11328,2.777343 l 0.002,0.002 0.002,0.002 c 0.74513,0.659145 1.77651,0.96289 3.01172,0.96289 1.91122,0 3.60982,-0.662445 5.00586,-1.955078 1.39648,-1.293038 2.30339,-3.038402 2.72071,-5.173828 v -0.002 l 2.1621,-10.896484 h 2.3379 l -3.76172,19.416015 h -2.32618 l 0.54688,-2.605469 -0.87891,-0.414062 c -0.90575,1.138003 -1.97726,2.011092 -3.22461,2.634766 -1.23265,0.610246 -2.53481,0.914062 -3.93164,0.914062 -1.69454,0 -2.93472,-0.447736 -3.82422,-1.314453 l -0.002,-0.002 c -0.88987,-0.880111 -1.34375,-2.090241 -1.34375,-3.744141 0,-0.336818 0.0285,-0.77774 0.0879,-1.3125 0.0579,-0.521733 0.14587,-1.06333 0.26172,-1.623047 0.002,-0.0087 0.002,-0.01664 0.004,-0.02539 l 0.002,-0.0059 z"
           id="path8046" />
      </g>
      <g
         id="path7951">
        <path
           style="color:#000000;-inkscape-font-specification:'sans-serif Italic';stroke:none;-inkscape-stroke:none"
           d="m 372.52182,62.191381 q -1.34896,1.768227 -3.1901,2.679685 -1.84115,0.911458 -4.08333,0.911458 -3.0625,0 -4.84896,-2.078124 -1.76823,-2.096352 -1.76823,-5.723953 0,-3.026039 1.07552,-5.760412 1.07552,-2.752602 3.11719,-4.921871 1.34896,-1.440103 3.04427,-2.187498 1.69531,-0.765624 3.55468,-0.765624 1.96875,0 3.46354,0.947916 1.51302,0.947915 2.33333,2.716143 l 2.1875,-11.119782 h 3.37239 l -5.52343,28.364559 h -3.37239 z m -10.40885,-4.812496 q 0,2.643227 1.1849,4.119788 1.20312,1.476561 3.3177,1.476561 1.56771,0 2.89844,-0.747395 1.34895,-0.765624 2.36979,-2.242186 1.07552,-1.531248 1.69531,-3.536455 0.61979,-2.005207 0.61979,-3.955726 0,-2.533852 -1.20313,-3.955725 -1.18489,-1.421874 -3.28124,-1.421874 -1.58594,0 -2.95312,0.747395 -1.36719,0.747395 -2.33334,2.15104 -1.05729,1.513019 -1.69531,3.518226 -0.61979,2.005207 -0.61979,3.846351 z"
           id="path8050" />
        <path
           style="color:#000000;-inkscape-font-specification:'sans-serif Italic';fill:#000000;stroke:none;-inkscape-stroke:none"
           d="m 376.99609,36.388672 -2.02734,10.304687 c -0.50531,-0.720712 -1.0827,-1.363378 -1.81445,-1.822265 l -0.002,-0.002 c -1.07988,-0.684186 -2.33671,-1.023438 -3.72851,-1.023438 -1.30677,0 -2.56628,0.269183 -3.75781,0.806641 -1.19388,0.526334 -2.26579,1.299845 -3.20704,2.304687 -1.40289,1.490855 -2.47909,3.187072 -3.21875,5.080078 h 0.002 c -0.74001,1.881382 -1.11133,3.866766 -1.11133,5.94336 0,2.499638 0.61626,4.540658 1.88672,6.046875 l 0.002,0.002 v 0.002 c 1.28305,1.492518 3.07376,2.251953 5.22852,2.251953 1.56253,0 3.00493,-0.321401 4.30468,-0.964844 0.77708,-0.384693 1.47247,-0.911067 2.12305,-1.509765 l -0.40625,1.945312 h 4.39844 l 5.71875,-29.365234 z m 0.82227,1 h 2.35547 l -5.33008,27.365234 h -2.3457 l 0.51367,-2.460937 -0.88672,-0.404297 c -0.8579,1.12454 -1.8599,1.963014 -3.01563,2.535156 -1.1551,0.571834 -2.43429,0.859375 -3.86132,0.859375 -1.92857,0 -3.36985,-0.625986 -4.46875,-1.904297 -1.0854,-1.288653 -1.64844,-3.063228 -1.64844,-5.398437 0,-1.958121 0.347,-3.813679 1.04101,-5.578125 0.69419,-1.776644 1.69683,-3.360493 3.01563,-4.761719 h 0.002 c 0.85737,-0.915293 1.81433,-1.602074 2.88086,-2.072266 l 0.002,-0.002 h 0.002 c 1.06771,-0.482194 2.17866,-0.720703 3.34961,-0.720703 1.23225,0 2.28263,0.290365 3.19531,0.869141 v 0.002 h 0.002 c 0.9246,0.579264 1.6327,1.398651 2.14453,2.501953 l 0.64844,1.396484 z m -8.10352,9.226562 c -1.13583,0 -2.2105,0.271299 -3.19336,0.808594 -0.98355,0.537677 -1.8228,1.314285 -2.50586,2.306641 -0.73654,1.054514 -1.32152,2.273055 -1.75976,3.65039 v 0.002 0.002 c -0.42594,1.378053 -0.64258,2.710607 -0.64258,3.99414 0,1.836863 0.41384,3.335635 1.29492,4.433594 l 0.002,0.002 c 0.89269,1.095578 2.17898,1.660156 3.70507,1.660156 1.1246,0 2.18429,-0.271231 3.14454,-0.810547 l 0.002,-0.002 c 0.97221,-0.551799 1.81705,-1.356716 2.5332,-2.392578 0.7489,-1.067066 1.33549,-2.292898 1.76172,-3.671875 0.4267,-1.380503 0.64258,-2.750211 0.64258,-4.103515 0,-1.76727 -0.42477,-3.217801 -1.32031,-4.277344 l -0.002,-0.002 c -0.88269,-1.057888 -2.15253,-1.59961 -3.66211,-1.59961 z m 0,1 c 1.28453,0 2.1994,0.40568 2.89649,1.242188 l 0.002,0.002 v 0.002 c 0.70748,0.836112 1.08594,2.022717 1.08594,3.632813 0,1.247385 -0.19797,2.513537 -0.59766,3.80664 -0.3997,1.293151 -0.94298,2.424644 -1.62695,3.398438 h -0.002 v 0.002 c -0.64438,0.932038 -1.37766,1.620837 -2.20313,2.089844 -0.81406,0.45721 -1.68861,0.683593 -2.6543,0.683593 -1.29333,0 -2.21821,-0.417847 -2.92968,-1.291015 -0.6978,-0.870703 -1.07227,-2.118489 -1.07227,-3.804688 0,-1.171322 0.19721,-2.403665 0.59766,-3.699219 0.41199,-1.293483 0.95523,-2.417649 1.62695,-3.378906 l 0.002,-0.002 v -0.002 c 0.60515,-0.879169 1.32275,-1.535292 2.16211,-1.994141 0.84006,-0.45923 1.73415,-0.6875 2.71289,-0.6875 z"
           id="path8052" />
      </g>
      <g
         id="path7953">
        <path
           style="color:#000000;-inkscape-font-specification:'sans-serif Italic';stroke:none;-inkscape-stroke:none"
           d="m 387.4515,36.889319 h 3.35417 l -0.82032,4.247392 h -3.35416 z m -1.53125,7.94791 h 3.35417 l -3.99219,20.416649 h -3.35416 z"
           id="path8056" />
        <path
           style="color:#000000;-inkscape-font-specification:'sans-serif Italic';fill:#000000;stroke:none;-inkscape-stroke:none"
           d="m 387.03906,36.388672 -0.0781,0.40625 -0.93555,4.841797 h 4.37305 l 1.01367,-5.248047 z m 0.82617,1 h 2.33399 l -0.62695,3.248047 h -2.33399 z m -2.35742,6.949219 -0.0781,0.404296 -4.10938,21.011719 h 4.37305 l 4.1875,-21.416015 z m 0.82422,1 h 2.33399 l -3.79493,19.416015 h -2.33593 z"
           id="path8058" />
      </g>
      <g
         id="path7955">
        <path
           style="color:#000000;-inkscape-font-specification:'sans-serif Italic';stroke:none;-inkscape-stroke:none"
           d="m 400.4671,65.782524 q -3.59114,0 -5.68749,-2.205728 -2.07812,-2.223956 -2.07812,-6.052078 0,-2.223956 0.71093,-4.520829 0.72917,-2.315103 1.87761,-3.88281 1.80468,-2.442706 4.02864,-3.609372 2.22395,-1.166665 5.03124,-1.166665 3.48177,0 5.61458,2.169269 2.15104,2.169269 2.15104,5.669266 0,2.424477 -0.71094,4.830725 -0.71093,2.406248 -1.85937,3.992184 -1.78646,2.442706 -4.01041,3.609372 -2.22396,1.166666 -5.06771,1.166666 z m -4.28385,-8.367181 q 0,2.770831 1.14844,4.156247 1.16667,1.367186 3.51823,1.367186 3.37239,0 5.57812,-2.934893 2.22395,-2.953123 2.22395,-7.473952 0,-2.643227 -1.18489,-3.992184 -1.1849,-1.348958 -3.48177,-1.348958 -1.89583,0 -3.37239,0.893229 -1.47656,0.874999 -2.64323,2.679685 -0.85677,1.348957 -1.33073,3.080727 -0.45573,1.731769 -0.45573,3.572913 z"
           id="path8062" />
        <path
           style="color:#000000;-inkscape-font-specification:'sans-serif Italic';fill:#000000;stroke:none;-inkscape-stroke:none"
           d="m 404.34961,43.845703 c -1.94079,0 -3.7044,0.404675 -5.26367,1.222656 -1.5605,0.818619 -2.95843,2.079038 -4.19727,3.75586 h -0.002 v 0.002 c -0.80515,1.099094 -1.45218,2.443047 -1.95117,4.027344 v 0.002 c -0.48743,1.574791 -0.73438,3.134008 -0.73438,4.669922 0,2.642554 0.72977,4.805375 2.21289,6.392578 l 0.002,0.002 0.002,0.002 c 1.49578,1.573825 3.55237,2.361328 6.04883,2.361328 1.9642,0 3.7405,-0.406105 5.30078,-1.224609 1.56098,-0.81888 2.9547,-2.08016 4.18164,-3.757813 v -0.002 c 0.80733,-1.114887 1.44932,-2.496879 1.93555,-4.142578 0.48688,-1.647926 0.73046,-3.307468 0.73046,-4.972656 0,-2.435131 -0.76701,-4.478022 -2.29492,-6.019532 -1.51723,-1.54317 -3.54568,-2.318359 -5.9707,-2.318359 z m 0,1 c 2.21734,0 3.9313,0.670346 5.25781,2.019531 h 0.002 v 0.002 c 1.33936,1.350708 2.00586,3.085508 2.00586,5.316407 0,1.567444 -0.22842,3.129051 -0.68945,4.689453 -0.46168,1.562628 -1.06124,2.840152 -1.78516,3.839844 -1.15454,1.578056 -2.43431,2.724634 -3.83789,3.460937 -1.405,0.737049 -3.00848,1.109375 -4.83593,1.109375 -2.29173,0 -4.02487,-0.683639 -5.32422,-2.050781 -1.28575,-1.377769 -1.94141,-3.24731 -1.94141,-5.707031 0,-1.429358 0.22898,-2.885344 0.68945,-4.373047 0.47281,-1.500292 1.07575,-2.744124 1.80079,-3.734375 l 0.002,-0.002 c 1.16693,-1.578892 2.45334,-2.724372 3.85742,-3.460938 1.40599,-0.73757 2.99657,-1.109375 4.79883,-1.109375 z m -0.36524,1.84375 c -1.34083,0 -2.56237,0.319865 -3.62695,0.962891 -1.06438,0.630746 -1.99665,1.584943 -2.80664,2.83789 l -0.002,0.002 -0.002,0.002 c -0.60072,0.945821 -1.06312,2.020178 -1.39062,3.216796 v 0.002 0.002 c -0.31492,1.196685 -0.47266,2.432489 -0.47266,3.701172 0,1.916298 0.39353,3.424912 1.26368,4.474609 l 0.002,0.002 0.002,0.0039 c 0.88546,1.037637 2.23384,1.542969 3.89844,1.542969 2.3933,0 4.4345,-1.080338 5.97851,-3.134766 1.5564,-2.066688 2.32422,-4.679518 2.32422,-7.77539 0,-1.836862 -0.41376,-3.301305 -1.31054,-4.322266 -0.89565,-1.019657 -2.2283,-1.517578 -3.85743,-1.517578 z m 0,1 c 1.43337,0 2.42321,0.398782 3.10743,1.177734 0.68306,0.777647 1.06054,1.974673 1.06054,3.66211 0,2.931894 -0.71417,5.303023 -2.12304,7.173828 -1.39696,1.858759 -3.07648,2.736328 -5.17969,2.736328 -1.46951,0 -2.46468,-0.407485 -3.13477,-1.191406 -5.9e-4,-6.89e-4 -10e-4,-0.0013 -0.002,-0.002 -0.65861,-0.797782 -1.0293,-2.055528 -1.0293,-3.830078 0,-1.185513 0.14706,-2.333557 0.43946,-3.445313 1.6e-4,-6.2e-4 -1.7e-4,-0.0013 0,-0.002 0.30432,-1.109763 0.72893,-2.088303 1.26953,-2.939453 0.74466,-1.150494 1.57166,-1.982498 2.47461,-2.517578 h 0.002 l 0.002,-0.002 c 0.90329,-0.546433 1.92793,-0.820313 3.11328,-0.820313 z"
           id="path8064" />
      </g>
    </g>
  </g>
  <script
     id="mesh_polyfill"
     type="text/javascript">
!function(){const t=&quot;http://www.w3.org/2000/svg&quot;,e=&quot;http://www.w3.org/1999/xlink&quot;,s=&quot;http://www.w3.org/1999/xhtml&quot;,r=2;if(document.createElementNS(t,&quot;meshgradient&quot;).x)return;const n=(t,e,s,r)=&gt;{let n=new x(.5*(e.x+s.x),.5*(e.y+s.y)),o=new x(.5*(t.x+e.x),.5*(t.y+e.y)),i=new x(.5*(s.x+r.x),.5*(s.y+r.y)),a=new x(.5*(n.x+o.x),.5*(n.y+o.y)),h=new x(.5*(n.x+i.x),.5*(n.y+i.y)),l=new x(.5*(a.x+h.x),.5*(a.y+h.y));return[[t,o,a,l],[l,h,i,r]]},o=t=&gt;{let e=t[0].distSquared(t[1]),s=t[2].distSquared(t[3]),r=.25*t[0].distSquared(t[2]),n=.25*t[1].distSquared(t[3]),o=e&gt;s?e:s,i=r&gt;n?r:n;return 18*(o&gt;i?o:i)},i=(t,e)=&gt;Math.sqrt(t.distSquared(e)),a=(t,e)=&gt;t.scale(2/3).add(e.scale(1/3)),h=t=&gt;{let e,s,r,n,o,i,a,h=new g;return t.match(/(\w+\(\s*[^)]+\))+/g).forEach(t=&gt;{let l=t.match(/[\w.-]+/g),d=l.shift();switch(d){case&quot;translate&quot;:2===l.length?e=new g(1,0,0,1,l[0],l[1]):(console.error(&quot;mesh.js: translate does not have 2 arguments!&quot;),e=new g(1,0,0,1,0,0)),h=h.append(e);break;case&quot;scale&quot;:1===l.length?s=new g(l[0],0,0,l[0],0,0):2===l.length?s=new g(l[0],0,0,l[1],0,0):(console.error(&quot;mesh.js: scale does not have 1 or 2 arguments!&quot;),s=new g(1,0,0,1,0,0)),h=h.append(s);break;case&quot;rotate&quot;:if(3===l.length&amp;&amp;(e=new g(1,0,0,1,l[1],l[2]),h=h.append(e)),l[0]){r=l[0]*Math.PI/180;let t=Math.cos(r),e=Math.sin(r);Math.abs(t)&lt;1e-16&amp;&amp;(t=0),Math.abs(e)&lt;1e-16&amp;&amp;(e=0),a=new g(t,e,-e,t,0,0),h=h.append(a)}else console.error(&quot;math.js: No argument to rotate transform!&quot;);3===l.length&amp;&amp;(e=new g(1,0,0,1,-l[1],-l[2]),h=h.append(e));break;case&quot;skewX&quot;:l[0]?(r=l[0]*Math.PI/180,n=Math.tan(r),o=new g(1,0,n,1,0,0),h=h.append(o)):console.error(&quot;math.js: No argument to skewX transform!&quot;);break;case&quot;skewY&quot;:l[0]?(r=l[0]*Math.PI/180,n=Math.tan(r),i=new g(1,n,0,1,0,0),h=h.append(i)):console.error(&quot;math.js: No argument to skewY transform!&quot;);break;case&quot;matrix&quot;:6===l.length?h=h.append(new g(...l)):console.error(&quot;math.js: Incorrect number of arguments for matrix!&quot;);break;default:console.error(&quot;mesh.js: Unhandled transform type: &quot;+d)}}),h},l=t=&gt;{let e=[],s=t.split(/[ ,]+/);for(let t=0,r=s.length-1;t&lt;r;t+=2)e.push(new x(parseFloat(s[t]),parseFloat(s[t+1])));return e},d=(t,e)=&gt;{for(let s in e)t.setAttribute(s,e[s])},c=(t,e,s,r,n)=&gt;{let o,i,a=[0,0,0,0];for(let h=0;h&lt;3;++h)e[h]&lt;t[h]&amp;&amp;e[h]&lt;s[h]||t[h]&lt;e[h]&amp;&amp;s[h]&lt;e[h]?a[h]=0:(a[h]=.5*((e[h]-t[h])/r+(s[h]-e[h])/n),o=Math.abs(3*(e[h]-t[h])/r),i=Math.abs(3*(s[h]-e[h])/n),a[h]&gt;o?a[h]=o:a[h]&gt;i&amp;&amp;(a[h]=i));return a},u=[[1,0,0,0,0,0,0,0,0,0,0,0,0,0,0,0],[0,0,0,0,1,0,0,0,0,0,0,0,0,0,0,0],[-3,3,0,0,-2,-1,0,0,0,0,0,0,0,0,0,0],[2,-2,0,0,1,1,0,0,0,0,0,0,0,0,0,0],[0,0,0,0,0,0,0,0,1,0,0,0,0,0,0,0],[0,0,0,0,0,0,0,0,0,0,0,0,1,0,0,0],[0,0,0,0,0,0,0,0,-3,3,0,0,-2,-1,0,0],[0,0,0,0,0,0,0,0,2,-2,0,0,1,1,0,0],[-3,0,3,0,0,0,0,0,-2,0,-1,0,0,0,0,0],[0,0,0,0,-3,0,3,0,0,0,0,0,-2,0,-1,0],[9,-9,-9,9,6,3,-6,-3,6,-6,3,-3,4,2,2,1],[-6,6,6,-6,-3,-3,3,3,-4,4,-2,2,-2,-2,-1,-1],[2,0,-2,0,0,0,0,0,1,0,1,0,0,0,0,0],[0,0,0,0,2,0,-2,0,0,0,0,0,1,0,1,0],[-6,6,6,-6,-4,-2,4,2,-3,3,-3,3,-2,-1,-2,-1],[4,-4,-4,4,2,2,-2,-2,2,-2,2,-2,1,1,1,1]],f=t=&gt;{let e=[];for(let s=0;s&lt;16;++s){e[s]=0;for(let r=0;r&lt;16;++r)e[s]+=u[s][r]*t[r]}return e},p=(t,e,s)=&gt;{const r=e*e,n=s*s,o=e*e*e,i=s*s*s;return t[0]+t[1]*e+t[2]*r+t[3]*o+t[4]*s+t[5]*s*e+t[6]*s*r+t[7]*s*o+t[8]*n+t[9]*n*e+t[10]*n*r+t[11]*n*o+t[12]*i+t[13]*i*e+t[14]*i*r+t[15]*i*o},y=t=&gt;{let e=[],s=[],r=[];for(let s=0;s&lt;4;++s)e[s]=[],e[s][0]=n(t[0][s],t[1][s],t[2][s],t[3][s]),e[s][1]=[],e[s][1].push(...n(...e[s][0][0])),e[s][1].push(...n(...e[s][0][1])),e[s][2]=[],e[s][2].push(...n(...e[s][1][0])),e[s][2].push(...n(...e[s][1][1])),e[s][2].push(...n(...e[s][1][2])),e[s][2].push(...n(...e[s][1][3]));for(let t=0;t&lt;8;++t){s[t]=[];for(let r=0;r&lt;4;++r)s[t][r]=[],s[t][r][0]=n(e[0][2][t][r],e[1][2][t][r],e[2][2][t][r],e[3][2][t][r]),s[t][r][1]=[],s[t][r][1].push(...n(...s[t][r][0][0])),s[t][r][1].push(...n(...s[t][r][0][1])),s[t][r][2]=[],s[t][r][2].push(...n(...s[t][r][1][0])),s[t][r][2].push(...n(...s[t][r][1][1])),s[t][r][2].push(...n(...s[t][r][1][2])),s[t][r][2].push(...n(...s[t][r][1][3]))}for(let t=0;t&lt;8;++t){r[t]=[];for(let e=0;e&lt;8;++e)r[t][e]=[],r[t][e][0]=s[t][0][2][e],r[t][e][1]=s[t][1][2][e],r[t][e][2]=s[t][2][2][e],r[t][e][3]=s[t][3][2][e]}return r};class x{constructor(t,e){this.x=t||0,this.y=e||0}toString(){return`(x=${this.x}, y=${this.y})`}clone(){return new x(this.x,this.y)}add(t){return new x(this.x+t.x,this.y+t.y)}scale(t){return void 0===t.x?new x(this.x*t,this.y*t):new x(this.x*t.x,this.y*t.y)}distSquared(t){let e=this.x-t.x,s=this.y-t.y;return e*e+s*s}transform(t){let e=this.x*t.a+this.y*t.c+t.e,s=this.x*t.b+this.y*t.d+t.f;return new x(e,s)}}class g{constructor(t,e,s,r,n,o){void 0===t?(this.a=1,this.b=0,this.c=0,this.d=1,this.e=0,this.f=0):(this.a=t,this.b=e,this.c=s,this.d=r,this.e=n,this.f=o)}toString(){return`affine: ${this.a} ${this.c} ${this.e} \n       ${this.b} ${this.d} ${this.f}`}append(t){t instanceof g||console.error(&quot;mesh.js: argument to Affine.append is not affine!&quot;);let e=this.a*t.a+this.c*t.b,s=this.b*t.a+this.d*t.b,r=this.a*t.c+this.c*t.d,n=this.b*t.c+this.d*t.d,o=this.a*t.e+this.c*t.f+this.e,i=this.b*t.e+this.d*t.f+this.f;return new g(e,s,r,n,o,i)}}class w{constructor(t,e){this.nodes=t,this.colors=e}paintCurve(t,e){if(o(this.nodes)&gt;r){const s=n(...this.nodes);let r=[[],[]],o=[[],[]];for(let t=0;t&lt;4;++t)r[0][t]=this.colors[0][t],r[1][t]=(this.colors[0][t]+this.colors[1][t])/2,o[0][t]=r[1][t],o[1][t]=this.colors[1][t];let i=new w(s[0],r),a=new w(s[1],o);i.paintCurve(t,e),a.paintCurve(t,e)}else{let s=Math.round(this.nodes[0].x);if(s&gt;=0&amp;&amp;s&lt;e){let r=4*(~~this.nodes[0].y*e+s);t[r]=Math.round(this.colors[0][0]),t[r+1]=Math.round(this.colors[0][1]),t[r+2]=Math.round(this.colors[0][2]),t[r+3]=Math.round(this.colors[0][3])}}}}class m{constructor(t,e){this.nodes=t,this.colors=e}split(){let t=[[],[],[],[]],e=[[],[],[],[]],s=[[[],[]],[[],[]]],r=[[[],[]],[[],[]]];for(let s=0;s&lt;4;++s){const r=n(this.nodes[0][s],this.nodes[1][s],this.nodes[2][s],this.nodes[3][s]);t[0][s]=r[0][0],t[1][s]=r[0][1],t[2][s]=r[0][2],t[3][s]=r[0][3],e[0][s]=r[1][0],e[1][s]=r[1][1],e[2][s]=r[1][2],e[3][s]=r[1][3]}for(let t=0;t&lt;4;++t)s[0][0][t]=this.colors[0][0][t],s[0][1][t]=this.colors[0][1][t],s[1][0][t]=(this.colors[0][0][t]+this.colors[1][0][t])/2,s[1][1][t]=(this.colors[0][1][t]+this.colors[1][1][t])/2,r[0][0][t]=s[1][0][t],r[0][1][t]=s[1][1][t],r[1][0][t]=this.colors[1][0][t],r[1][1][t]=this.colors[1][1][t];return[new m(t,s),new m(e,r)]}paint(t,e){let s,n=!1;for(let t=0;t&lt;4;++t)if((s=o([this.nodes[0][t],this.nodes[1][t],this.nodes[2][t],this.nodes[3][t]]))&gt;r){n=!0;break}if(n){let s=this.split();s[0].paint(t,e),s[1].paint(t,e)}else{new w([...this.nodes[0]],[...this.colors[0]]).paintCurve(t,e)}}}class b{constructor(t){this.readMesh(t),this.type=t.getAttribute(&quot;type&quot;)||&quot;bilinear&quot;}readMesh(t){let e=[[]],s=[[]],r=Number(t.getAttribute(&quot;x&quot;)),n=Number(t.getAttribute(&quot;y&quot;));e[0][0]=new x(r,n);let o=t.children;for(let t=0,r=o.length;t&lt;r;++t){e[3*t+1]=[],e[3*t+2]=[],e[3*t+3]=[],s[t+1]=[];let r=o[t].children;for(let n=0,o=r.length;n&lt;o;++n){let o=r[n].children;for(let r=0,i=o.length;r&lt;i;++r){let i=r;0!==t&amp;&amp;++i;let h,d=o[r].getAttribute(&quot;path&quot;),c=&quot;l&quot;;null!=d&amp;&amp;(c=(h=d.match(/\s*([lLcC])\s*(.*)/))[1]);let u=l(h[2]);switch(c){case&quot;l&quot;:0===i?(e[3*t][3*n+3]=u[0].add(e[3*t][3*n]),e[3*t][3*n+1]=a(e[3*t][3*n],e[3*t][3*n+3]),e[3*t][3*n+2]=a(e[3*t][3*n+3],e[3*t][3*n])):1===i?(e[3*t+3][3*n+3]=u[0].add(e[3*t][3*n+3]),e[3*t+1][3*n+3]=a(e[3*t][3*n+3],e[3*t+3][3*n+3]),e[3*t+2][3*n+3]=a(e[3*t+3][3*n+3],e[3*t][3*n+3])):2===i?(0===n&amp;&amp;(e[3*t+3][3*n+0]=u[0].add(e[3*t+3][3*n+3])),e[3*t+3][3*n+1]=a(e[3*t+3][3*n],e[3*t+3][3*n+3]),e[3*t+3][3*n+2]=a(e[3*t+3][3*n+3],e[3*t+3][3*n])):(e[3*t+1][3*n]=a(e[3*t][3*n],e[3*t+3][3*n]),e[3*t+2][3*n]=a(e[3*t+3][3*n],e[3*t][3*n]));break;case&quot;L&quot;:0===i?(e[3*t][3*n+3]=u[0],e[3*t][3*n+1]=a(e[3*t][3*n],e[3*t][3*n+3]),e[3*t][3*n+2]=a(e[3*t][3*n+3],e[3*t][3*n])):1===i?(e[3*t+3][3*n+3]=u[0],e[3*t+1][3*n+3]=a(e[3*t][3*n+3],e[3*t+3][3*n+3]),e[3*t+2][3*n+3]=a(e[3*t+3][3*n+3],e[3*t][3*n+3])):2===i?(0===n&amp;&amp;(e[3*t+3][3*n+0]=u[0]),e[3*t+3][3*n+1]=a(e[3*t+3][3*n],e[3*t+3][3*n+3]),e[3*t+3][3*n+2]=a(e[3*t+3][3*n+3],e[3*t+3][3*n])):(e[3*t+1][3*n]=a(e[3*t][3*n],e[3*t+3][3*n]),e[3*t+2][3*n]=a(e[3*t+3][3*n],e[3*t][3*n]));break;case&quot;c&quot;:0===i?(e[3*t][3*n+1]=u[0].add(e[3*t][3*n]),e[3*t][3*n+2]=u[1].add(e[3*t][3*n]),e[3*t][3*n+3]=u[2].add(e[3*t][3*n])):1===i?(e[3*t+1][3*n+3]=u[0].add(e[3*t][3*n+3]),e[3*t+2][3*n+3]=u[1].add(e[3*t][3*n+3]),e[3*t+3][3*n+3]=u[2].add(e[3*t][3*n+3])):2===i?(e[3*t+3][3*n+2]=u[0].add(e[3*t+3][3*n+3]),e[3*t+3][3*n+1]=u[1].add(e[3*t+3][3*n+3]),0===n&amp;&amp;(e[3*t+3][3*n+0]=u[2].add(e[3*t+3][3*n+3]))):(e[3*t+2][3*n]=u[0].add(e[3*t+3][3*n]),e[3*t+1][3*n]=u[1].add(e[3*t+3][3*n]));break;case&quot;C&quot;:0===i?(e[3*t][3*n+1]=u[0],e[3*t][3*n+2]=u[1],e[3*t][3*n+3]=u[2]):1===i?(e[3*t+1][3*n+3]=u[0],e[3*t+2][3*n+3]=u[1],e[3*t+3][3*n+3]=u[2]):2===i?(e[3*t+3][3*n+2]=u[0],e[3*t+3][3*n+1]=u[1],0===n&amp;&amp;(e[3*t+3][3*n+0]=u[2])):(e[3*t+2][3*n]=u[0],e[3*t+1][3*n]=u[1]);break;default:console.error(&quot;mesh.js: &quot;+c+&quot; invalid path type.&quot;)}if(0===t&amp;&amp;0===n||r&gt;0){let e=window.getComputedStyle(o[r]).stopColor.match(/^rgb\s*\(\s*(\d+)\s*,\s*(\d+)\s*,\s*(\d+)\s*\)$/i),a=window.getComputedStyle(o[r]).stopOpacity,h=255;a&amp;&amp;(h=Math.floor(255*a)),e&amp;&amp;(0===i?(s[t][n]=[],s[t][n][0]=Math.floor(e[1]),s[t][n][1]=Math.floor(e[2]),s[t][n][2]=Math.floor(e[3]),s[t][n][3]=h):1===i?(s[t][n+1]=[],s[t][n+1][0]=Math.floor(e[1]),s[t][n+1][1]=Math.floor(e[2]),s[t][n+1][2]=Math.floor(e[3]),s[t][n+1][3]=h):2===i?(s[t+1][n+1]=[],s[t+1][n+1][0]=Math.floor(e[1]),s[t+1][n+1][1]=Math.floor(e[2]),s[t+1][n+1][2]=Math.floor(e[3]),s[t+1][n+1][3]=h):3===i&amp;&amp;(s[t+1][n]=[],s[t+1][n][0]=Math.floor(e[1]),s[t+1][n][1]=Math.floor(e[2]),s[t+1][n][2]=Math.floor(e[3]),s[t+1][n][3]=h))}}e[3*t+1][3*n+1]=new x,e[3*t+1][3*n+2]=new x,e[3*t+2][3*n+1]=new x,e[3*t+2][3*n+2]=new x,e[3*t+1][3*n+1].x=(-4*e[3*t][3*n].x+6*(e[3*t][3*n+1].x+e[3*t+1][3*n].x)+-2*(e[3*t][3*n+3].x+e[3*t+3][3*n].x)+3*(e[3*t+3][3*n+1].x+e[3*t+1][3*n+3].x)+-1*e[3*t+3][3*n+3].x)/9,e[3*t+1][3*n+2].x=(-4*e[3*t][3*n+3].x+6*(e[3*t][3*n+2].x+e[3*t+1][3*n+3].x)+-2*(e[3*t][3*n].x+e[3*t+3][3*n+3].x)+3*(e[3*t+3][3*n+2].x+e[3*t+1][3*n].x)+-1*e[3*t+3][3*n].x)/9,e[3*t+2][3*n+1].x=(-4*e[3*t+3][3*n].x+6*(e[3*t+3][3*n+1].x+e[3*t+2][3*n].x)+-2*(e[3*t+3][3*n+3].x+e[3*t][3*n].x)+3*(e[3*t][3*n+1].x+e[3*t+2][3*n+3].x)+-1*e[3*t][3*n+3].x)/9,e[3*t+2][3*n+2].x=(-4*e[3*t+3][3*n+3].x+6*(e[3*t+3][3*n+2].x+e[3*t+2][3*n+3].x)+-2*(e[3*t+3][3*n].x+e[3*t][3*n+3].x)+3*(e[3*t][3*n+2].x+e[3*t+2][3*n].x)+-1*e[3*t][3*n].x)/9,e[3*t+1][3*n+1].y=(-4*e[3*t][3*n].y+6*(e[3*t][3*n+1].y+e[3*t+1][3*n].y)+-2*(e[3*t][3*n+3].y+e[3*t+3][3*n].y)+3*(e[3*t+3][3*n+1].y+e[3*t+1][3*n+3].y)+-1*e[3*t+3][3*n+3].y)/9,e[3*t+1][3*n+2].y=(-4*e[3*t][3*n+3].y+6*(e[3*t][3*n+2].y+e[3*t+1][3*n+3].y)+-2*(e[3*t][3*n].y+e[3*t+3][3*n+3].y)+3*(e[3*t+3][3*n+2].y+e[3*t+1][3*n].y)+-1*e[3*t+3][3*n].y)/9,e[3*t+2][3*n+1].y=(-4*e[3*t+3][3*n].y+6*(e[3*t+3][3*n+1].y+e[3*t+2][3*n].y)+-2*(e[3*t+3][3*n+3].y+e[3*t][3*n].y)+3*(e[3*t][3*n+1].y+e[3*t+2][3*n+3].y)+-1*e[3*t][3*n+3].y)/9,e[3*t+2][3*n+2].y=(-4*e[3*t+3][3*n+3].y+6*(e[3*t+3][3*n+2].y+e[3*t+2][3*n+3].y)+-2*(e[3*t+3][3*n].y+e[3*t][3*n+3].y)+3*(e[3*t][3*n+2].y+e[3*t+2][3*n].y)+-1*e[3*t][3*n].y)/9}}this.nodes=e,this.colors=s}paintMesh(t,e){let s=(this.nodes.length-1)/3,r=(this.nodes[0].length-1)/3;if(&quot;bilinear&quot;===this.type||s&lt;2||r&lt;2){let n;for(let o=0;o&lt;s;++o)for(let s=0;s&lt;r;++s){let r=[];for(let t=3*o,e=3*o+4;t&lt;e;++t)r.push(this.nodes[t].slice(3*s,3*s+4));let i=[];i.push(this.colors[o].slice(s,s+2)),i.push(this.colors[o+1].slice(s,s+2)),(n=new m(r,i)).paint(t,e)}}else{let n,o,a,h,l,d,u;const x=s,g=r;s++,r++;let w=new Array(s);for(let t=0;t&lt;s;++t){w[t]=new Array(r);for(let e=0;e&lt;r;++e)w[t][e]=[],w[t][e][0]=this.nodes[3*t][3*e],w[t][e][1]=this.colors[t][e]}for(let t=0;t&lt;s;++t)for(let e=0;e&lt;r;++e)0!==t&amp;&amp;t!==x&amp;&amp;(n=i(w[t-1][e][0],w[t][e][0]),o=i(w[t+1][e][0],w[t][e][0]),w[t][e][2]=c(w[t-1][e][1],w[t][e][1],w[t+1][e][1],n,o)),0!==e&amp;&amp;e!==g&amp;&amp;(n=i(w[t][e-1][0],w[t][e][0]),o=i(w[t][e+1][0],w[t][e][0]),w[t][e][3]=c(w[t][e-1][1],w[t][e][1],w[t][e+1][1],n,o));for(let t=0;t&lt;r;++t){w[0][t][2]=[],w[x][t][2]=[];for(let e=0;e&lt;4;++e)n=i(w[1][t][0],w[0][t][0]),o=i(w[x][t][0],w[x-1][t][0]),w[0][t][2][e]=n&gt;0?2*(w[1][t][1][e]-w[0][t][1][e])/n-w[1][t][2][e]:0,w[x][t][2][e]=o&gt;0?2*(w[x][t][1][e]-w[x-1][t][1][e])/o-w[x-1][t][2][e]:0}for(let t=0;t&lt;s;++t){w[t][0][3]=[],w[t][g][3]=[];for(let e=0;e&lt;4;++e)n=i(w[t][1][0],w[t][0][0]),o=i(w[t][g][0],w[t][g-1][0]),w[t][0][3][e]=n&gt;0?2*(w[t][1][1][e]-w[t][0][1][e])/n-w[t][1][3][e]:0,w[t][g][3][e]=o&gt;0?2*(w[t][g][1][e]-w[t][g-1][1][e])/o-w[t][g-1][3][e]:0}for(let s=0;s&lt;x;++s)for(let r=0;r&lt;g;++r){let n=i(w[s][r][0],w[s+1][r][0]),o=i(w[s][r+1][0],w[s+1][r+1][0]),c=i(w[s][r][0],w[s][r+1][0]),x=i(w[s+1][r][0],w[s+1][r+1][0]),g=[[],[],[],[]];for(let t=0;t&lt;4;++t){(d=[])[0]=w[s][r][1][t],d[1]=w[s+1][r][1][t],d[2]=w[s][r+1][1][t],d[3]=w[s+1][r+1][1][t],d[4]=w[s][r][2][t]*n,d[5]=w[s+1][r][2][t]*n,d[6]=w[s][r+1][2][t]*o,d[7]=w[s+1][r+1][2][t]*o,d[8]=w[s][r][3][t]*c,d[9]=w[s+1][r][3][t]*x,d[10]=w[s][r+1][3][t]*c,d[11]=w[s+1][r+1][3][t]*x,d[12]=0,d[13]=0,d[14]=0,d[15]=0,u=f(d);for(let e=0;e&lt;9;++e){g[t][e]=[];for(let s=0;s&lt;9;++s)g[t][e][s]=p(u,e/8,s/8),g[t][e][s]&gt;255?g[t][e][s]=255:g[t][e][s]&lt;0&amp;&amp;(g[t][e][s]=0)}}h=[];for(let t=3*s,e=3*s+4;t&lt;e;++t)h.push(this.nodes[t].slice(3*r,3*r+4));l=y(h);for(let s=0;s&lt;8;++s)for(let r=0;r&lt;8;++r)(a=new m(l[s][r],[[[g[0][s][r],g[1][s][r],g[2][s][r],g[3][s][r]],[g[0][s][r+1],g[1][s][r+1],g[2][s][r+1],g[3][s][r+1]]],[[g[0][s+1][r],g[1][s+1][r],g[2][s+1][r],g[3][s+1][r]],[g[0][s+1][r+1],g[1][s+1][r+1],g[2][s+1][r+1],g[3][s+1][r+1]]]])).paint(t,e)}}}transform(t){if(t instanceof x)for(let e=0,s=this.nodes.length;e&lt;s;++e)for(let s=0,r=this.nodes[0].length;s&lt;r;++s)this.nodes[e][s]=this.nodes[e][s].add(t);else if(t instanceof g)for(let e=0,s=this.nodes.length;e&lt;s;++e)for(let s=0,r=this.nodes[0].length;s&lt;r;++s)this.nodes[e][s]=this.nodes[e][s].transform(t)}scale(t){for(let e=0,s=this.nodes.length;e&lt;s;++e)for(let s=0,r=this.nodes[0].length;s&lt;r;++s)this.nodes[e][s]=this.nodes[e][s].scale(t)}}document.querySelectorAll(&quot;rect,circle,ellipse,path,text&quot;).forEach((r,n)=&gt;{let o=r.getAttribute(&quot;id&quot;);o||(o=&quot;patchjs_shape&quot;+n,r.setAttribute(&quot;id&quot;,o));const i=r.style.fill.match(/^url\(\s*&quot;?\s*#([^\s&quot;]+)&quot;?\s*\)/),a=r.style.stroke.match(/^url\(\s*&quot;?\s*#([^\s&quot;]+)&quot;?\s*\)/);if(i&amp;&amp;i[1]){const a=document.getElementById(i[1]);if(a&amp;&amp;&quot;meshgradient&quot;===a.nodeName){const i=r.getBBox();let l=document.createElementNS(s,&quot;canvas&quot;);d(l,{width:i.width,height:i.height});const c=l.getContext(&quot;2d&quot;);let u=c.createImageData(i.width,i.height);const f=new b(a);&quot;objectBoundingBox&quot;===a.getAttribute(&quot;gradientUnits&quot;)&amp;&amp;f.scale(new x(i.width,i.height));const p=a.getAttribute(&quot;gradientTransform&quot;);null!=p&amp;&amp;f.transform(h(p)),&quot;userSpaceOnUse&quot;===a.getAttribute(&quot;gradientUnits&quot;)&amp;&amp;f.transform(new x(-i.x,-i.y)),f.paintMesh(u.data,l.width),c.putImageData(u,0,0);const y=document.createElementNS(t,&quot;image&quot;);d(y,{width:i.width,height:i.height,x:i.x,y:i.y});let g=l.toDataURL();y.setAttributeNS(e,&quot;xlink:href&quot;,g),r.parentNode.insertBefore(y,r),r.style.fill=&quot;none&quot;;const w=document.createElementNS(t,&quot;use&quot;);w.setAttributeNS(e,&quot;xlink:href&quot;,&quot;#&quot;+o);const m=&quot;patchjs_clip&quot;+n,M=document.createElementNS(t,&quot;clipPath&quot;);M.setAttribute(&quot;id&quot;,m),M.appendChild(w),r.parentElement.insertBefore(M,r),y.setAttribute(&quot;clip-path&quot;,&quot;url(#&quot;+m+&quot;)&quot;),u=null,l=null,g=null}}if(a&amp;&amp;a[1]){const o=document.getElementById(a[1]);if(o&amp;&amp;&quot;meshgradient&quot;===o.nodeName){const i=parseFloat(r.style.strokeWidth.slice(0,-2))*(parseFloat(r.style.strokeMiterlimit)||parseFloat(r.getAttribute(&quot;stroke-miterlimit&quot;))||1),a=r.getBBox(),l=Math.trunc(a.width+i),c=Math.trunc(a.height+i),u=Math.trunc(a.x-i/2),f=Math.trunc(a.y-i/2);let p=document.createElementNS(s,&quot;canvas&quot;);d(p,{width:l,height:c});const y=p.getContext(&quot;2d&quot;);let g=y.createImageData(l,c);const w=new b(o);&quot;objectBoundingBox&quot;===o.getAttribute(&quot;gradientUnits&quot;)&amp;&amp;w.scale(new x(l,c));const m=o.getAttribute(&quot;gradientTransform&quot;);null!=m&amp;&amp;w.transform(h(m)),&quot;userSpaceOnUse&quot;===o.getAttribute(&quot;gradientUnits&quot;)&amp;&amp;w.transform(new x(-u,-f)),w.paintMesh(g.data,p.width),y.putImageData(g,0,0);const M=document.createElementNS(t,&quot;image&quot;);d(M,{width:l,height:c,x:0,y:0});let S=p.toDataURL();M.setAttributeNS(e,&quot;xlink:href&quot;,S);const k=&quot;pattern_clip&quot;+n,A=document.createElementNS(t,&quot;pattern&quot;);d(A,{id:k,patternUnits:&quot;userSpaceOnUse&quot;,width:l,height:c,x:u,y:f}),A.appendChild(M),o.parentNode.appendChild(A),r.style.stroke=&quot;url(#&quot;+k+&quot;)&quot;,g=null,p=null,S=null}}})}();
</script>
</svg>
